<?xml version="1.0" encoding="UTF-8"?><svg xmlns="http://www.w3.org/2000/svg" xmlns:xlink="http://www.w3.org/1999/xlink" contentScriptType="text/ecmascript" width="1350" zoomAndPan="magnify" contentStyleType="text/css" viewBox="0 0 1350 1199.999942" height="1199.999942" preserveAspectRatio="xMidYMid meet" version="1.0"><defs><clipPath id="clip-0"><path d="M 51.121094 1.875 L 1285 1.875 L 1285 1200 L 51.121094 1200 Z M 51.121094 1.875 " clip-rule="nonzero"/></clipPath><clipPath id="clip-1"><path d="M 19.195312 28 L 1349.640625 28 L 1349.640625 1200 L 19.195312 1200 Z M 19.195312 28 " clip-rule="nonzero"/></clipPath></defs><g clip-path="url(#clip-0)"><path fill="rgb(93.728638%, 16.859436%, 27.839661%)" d="M 245.011719 590.453125 L 121.351562 590.453125 C 116.414062 590.453125 112.421875 586.460938 112.421875 581.535156 L 112.421875 566.074219 C 112.421875 561.144531 116.414062 557.152344 121.351562 557.152344 L 245.011719 557.152344 C 249.9375 557.152344 253.929688 561.144531 253.929688 566.074219 L 253.929688 581.535156 C 253.929688 586.460938 249.9375 590.453125 245.011719 590.453125 Z M 51.984375 485.105469 L 51.984375 435.09375 L 79.089844 435.09375 L 79.089844 485.105469 C 79.089844 486.882812 77.644531 488.328125 75.867188 488.328125 L 55.207031 488.328125 C 53.429688 488.328125 51.984375 486.882812 51.984375 485.105469 Z M 276.453125 140.660156 L 276.277344 140.621094 L 276.277344 114.097656 C 276.277344 52.121094 226.042969 1.875 164.089844 1.875 C 102.121094 1.875 51.902344 52.121094 51.902344 114.097656 L 51.902344 165.976562 L 58.117188 165.976562 L 83.707031 256.886719 C 84.714844 260.453125 88.414062 262.519531 91.96875 261.523438 L 107.765625 257.074219 C 111.332031 256.0625 113.398438 252.363281 112.402344 248.808594 L 81.167969 137.894531 C 80.160156 134.339844 76.472656 132.269531 72.90625 133.269531 L 63.242188 135.992188 L 63.242188 118.960938 C 63.242188 62.777344 108.402344 26.867188 164.089844 26.867188 C 219.789062 26.867188 264.925781 62.777344 264.925781 118.960938 L 264.925781 137.417969 L 260.65625 136.210938 C 257.089844 135.210938 253.398438 137.28125 252.402344 140.847656 L 221.160156 251.75 C 220.160156 255.316406 222.230469 259.007812 225.792969 260.015625 L 241.59375 264.464844 C 245.148438 265.464844 248.847656 263.394531 249.855469 259.839844 L 281.078125 148.925781 C 282.085938 145.371094 280.007812 141.667969 276.453125 140.660156 Z M 574.640625 176.488281 L 578.640625 180.492188 L 609.5625 149.558594 L 605.5625 145.558594 Z M 609.25 135.296875 L 605.25 131.292969 L 574.328125 162.222656 L 578.332031 166.226562 Z M 1247.886719 1200.273438 L 109.378906 1200.273438 C 109.378906 1200.273438 191.953125 1016 286.980469 914.09375 C 382.007812 812.195312 319.730469 747.539062 386.082031 594.808594 C 564.007812 185.253906 842.75 133.050781 1068.789062 191.644531 C 1451.984375 290.964844 979.796875 560.136719 1173.398438 611.339844 C 1366.996094 662.542969 1247.886719 1200.273438 1247.886719 1200.273438 " fill-opacity="1" fill-rule="nonzero"/></g><path fill="rgb(11.759949%, 19.219971%, 28.239441%)" d="M 230.265625 944.253906 L 96.945312 944.253906 C 94.484375 944.253906 92.488281 946.25 92.488281 948.703125 L 92.488281 958.789062 L 102.363281 958.789062 L 111.3125 1057.132812 L 215.898438 1057.132812 L 224.847656 958.789062 L 234.722656 958.789062 L 234.722656 948.703125 C 234.722656 946.25 232.726562 944.253906 230.265625 944.253906 Z M 695.351562 911.285156 C 695.351562 894.308594 679.105469 880.53125 659.066406 880.53125 C 639.027344 880.53125 622.785156 894.308594 622.785156 911.285156 C 622.785156 928.273438 639.027344 942.039062 659.066406 942.039062 C 679.105469 942.039062 695.351562 928.273438 695.351562 911.285156 Z M 912.460938 776.273438 L 928.640625 809.84375 L 928.640625 776.273438 Z M 982.554688 900.660156 L 981.648438 916.234375 L 853.15625 958.675781 L 849.132812 945.574219 L 841.785156 1047.089844 L 820.644531 1047.753906 L 822.253906 1032.804688 C 822.804688 1030.316406 821.183594 1027.894531 818.949219 1027.894531 L 511.574219 1027.894531 L 493.976562 889.847656 L 423.914062 967.21875 L 317.847656 905.859375 L 316.601562 885.191406 C 316.238281 879.066406 320.730469 873.734375 326.820312 873.058594 L 334.375 872.226562 L 469.136719 694.847656 L 670.6875 618.046875 L 868.027344 684.128906 L 909.269531 769.660156 L 928.871094 769.660156 C 930.554688 769.660156 932.007812 770.285156 933.246094 771.535156 C 934.472656 772.769531 935.097656 774.246094 935.097656 775.960938 L 935.097656 815.035156 C 935.097656 816.75 934.484375 818.226562 933.277344 819.453125 L 965.394531 886.085938 L 974.488281 888.953125 C 979.527344 890.542969 982.855469 895.367188 982.554688 900.660156 Z M 1086.757812 266.355469 L 1110.476562 266.355469 C 1112.355469 266.355469 1113.886719 264.839844 1113.886719 262.957031 L 1113.886719 258.796875 L 1083.359375 258.796875 L 1083.359375 262.957031 C 1083.359375 264.839844 1084.875 266.355469 1086.757812 266.355469 Z M 735.230469 182.464844 C 741.1875 182.464844 746.027344 177.621094 746.027344 171.664062 C 746.027344 165.707031 741.1875 160.863281 735.230469 160.863281 C 729.285156 160.863281 724.429688 165.707031 724.429688 171.664062 C 724.429688 177.621094 729.285156 182.464844 735.230469 182.464844 Z M 723.382812 92.910156 L 460.667969 92.910156 L 460.667969 250.417969 L 723.382812 250.417969 Z M 1027.890625 797.929688 C 1026.976562 797.929688 1026.207031 798.253906 1025.570312 798.898438 C 1024.9375 799.542969 1024.625 800.300781 1024.625 801.183594 L 1024.625 814.792969 L 1018.097656 814.792969 L 1018.097656 769.746094 L 1001.699219 769.746094 C 1000.792969 769.746094 1000.015625 770.058594 999.378906 770.691406 C 998.746094 771.335938 998.433594 772.105469 998.433594 773.007812 C 998.433594 773.914062 998.746094 774.683594 999.378906 775.316406 C 1000.015625 775.953125 1000.792969 776.273438 1001.699219 776.273438 L 1011.5625 776.273438 L 1011.5625 814.792969 L 1001.542969 814.792969 C 1000.636719 814.792969 999.859375 815.105469 999.222656 815.730469 C 998.589844 816.355469 998.277344 817.101562 998.277344 817.984375 C 998.277344 818.890625 998.589844 819.671875 999.222656 820.335938 C 999.859375 820.992188 1000.636719 821.324219 1001.542969 821.324219 L 1027.890625 821.324219 C 1028.792969 821.324219 1029.5625 821.011719 1030.195312 820.367188 C 1030.832031 819.734375 1031.152344 818.964844 1031.152344 818.058594 L 1031.152344 801.183594 C 1031.152344 800.28125 1030.832031 799.511719 1030.195312 798.875 C 1029.5625 798.242188 1028.792969 797.929688 1027.890625 797.929688 Z M 976.710938 776.273438 L 956.820312 776.273438 L 956.820312 814.792969 L 976.710938 814.792969 Z M 981.316406 771.535156 C 982.542969 772.769531 983.167969 774.246094 983.167969 775.960938 L 983.167969 815.035156 C 983.167969 816.769531 982.542969 818.246094 981.316406 819.472656 C 980.078125 820.710938 978.601562 821.324219 976.867188 821.324219 L 956.578125 821.324219 C 954.824219 821.324219 953.335938 820.710938 952.109375 819.472656 C 950.894531 818.246094 950.28125 816.769531 950.28125 815.035156 L 950.28125 775.960938 C 950.28125 774.246094 950.90625 772.769531 952.152344 771.535156 C 953.390625 770.285156 954.863281 769.660156 956.578125 769.660156 L 976.941406 769.660156 C 978.625 769.660156 980.078125 770.285156 981.316406 771.535156 Z M 1225.90625 643.871094 L 1225.90625 655.765625 L 1219.378906 655.765625 L 1219.378906 637.1875 C 1217.269531 635.179688 1215.097656 633.265625 1212.851562 631.4375 L 1212.851562 655.765625 L 1202.820312 655.765625 C 1201.917969 655.765625 1201.148438 656.078125 1200.515625 656.703125 C 1199.878906 657.324219 1199.570312 658.074219 1199.570312 658.957031 C 1199.570312 659.863281 1199.878906 660.640625 1200.515625 661.308594 C 1201.148438 661.960938 1201.917969 662.296875 1202.820312 662.296875 L 1229.167969 662.296875 C 1230.074219 662.296875 1230.851562 661.984375 1231.488281 661.339844 C 1232.121094 660.703125 1232.433594 659.933594 1232.433594 659.03125 L 1232.433594 651.679688 C 1230.332031 648.976562 1228.160156 646.367188 1225.90625 643.871094 Z M 1177.992188 617.246094 L 1158.097656 617.246094 L 1158.097656 655.765625 L 1177.992188 655.765625 Z M 1184.0625 614.78125 C 1184.300781 615.457031 1184.445312 616.164062 1184.445312 616.933594 L 1184.445312 656.003906 C 1184.445312 657.742188 1183.832031 659.21875 1182.605469 660.445312 C 1181.371094 661.683594 1179.882812 662.296875 1178.148438 662.296875 L 1157.859375 662.296875 C 1156.101562 662.296875 1154.617188 661.683594 1153.402344 660.445312 C 1152.175781 659.21875 1151.570312 657.742188 1151.570312 656.003906 L 1151.570312 616.933594 C 1151.570312 615.21875 1152.195312 613.742188 1153.433594 612.503906 C 1154.679688 611.257812 1156.15625 610.632812 1157.859375 610.632812 L 1170.902344 610.632812 C 1171.722656 610.871094 1172.546875 611.113281 1173.398438 611.339844 C 1177.066406 612.308594 1180.609375 613.472656 1184.0625 614.78125 Z M 1129.921875 617.246094 L 1110.027344 617.246094 L 1110.027344 655.765625 L 1129.921875 655.765625 Z M 1134.527344 612.503906 C 1135.761719 613.742188 1136.375 615.21875 1136.375 616.933594 L 1136.375 656.003906 C 1136.375 657.742188 1135.761719 659.21875 1134.527344 660.445312 C 1133.300781 661.683594 1131.8125 662.296875 1130.078125 662.296875 L 1109.800781 662.296875 C 1108.035156 662.296875 1106.546875 661.683594 1105.332031 660.445312 C 1104.113281 659.21875 1103.5 657.742188 1103.5 656.003906 L 1103.5 616.933594 C 1103.5 615.21875 1104.125 613.742188 1105.371094 612.503906 C 1106.609375 611.257812 1108.085938 610.632812 1109.800781 610.632812 L 1130.160156 610.632812 C 1131.84375 610.632812 1133.300781 611.257812 1134.527344 612.503906 Z M 1084.96875 638.902344 C 1084.066406 638.902344 1083.285156 639.226562 1082.652344 639.871094 C 1082.019531 640.515625 1081.707031 641.285156 1081.707031 642.15625 L 1081.707031 655.765625 L 1075.179688 655.765625 L 1075.179688 610.71875 L 1058.777344 610.71875 C 1057.863281 610.71875 1057.105469 611.027344 1056.460938 611.664062 C 1055.828125 612.308594 1055.515625 613.078125 1055.515625 613.980469 C 1055.515625 614.886719 1055.828125 615.65625 1056.460938 616.289062 C 1057.105469 616.925781 1057.863281 617.246094 1058.777344 617.246094 L 1068.652344 617.246094 L 1068.652344 655.765625 L 1058.621094 655.765625 C 1057.71875 655.765625 1056.9375 656.078125 1056.304688 656.703125 C 1055.679688 657.324219 1055.359375 658.074219 1055.359375 658.957031 C 1055.359375 659.863281 1055.679688 660.640625 1056.304688 661.308594 C 1056.9375 661.960938 1057.71875 662.296875 1058.621094 662.296875 L 1084.96875 662.296875 C 1085.875 662.296875 1086.644531 661.984375 1087.277344 661.339844 C 1087.910156 660.703125 1088.234375 659.933594 1088.234375 659.03125 L 1088.234375 642.15625 C 1088.234375 641.253906 1087.910156 640.484375 1087.277344 639.847656 C 1086.644531 639.214844 1085.875 638.902344 1084.96875 638.902344 Z M 1033.792969 617.246094 L 1013.898438 617.246094 L 1013.898438 655.765625 L 1033.792969 655.765625 Z M 1038.398438 612.503906 C 1039.625 613.742188 1040.238281 615.21875 1040.238281 616.933594 L 1040.238281 656.003906 C 1040.238281 657.742188 1039.625 659.21875 1038.398438 660.445312 C 1037.160156 661.683594 1035.683594 662.296875 1033.949219 662.296875 L 1013.660156 662.296875 C 1011.902344 662.296875 1010.40625 661.683594 1009.191406 660.445312 C 1007.976562 659.21875 1007.363281 657.742188 1007.363281 656.003906 L 1007.363281 616.933594 C 1007.363281 615.21875 1007.984375 613.742188 1009.234375 612.503906 C 1010.46875 611.257812 1011.945312 610.632812 1013.660156 610.632812 L 1034.019531 610.632812 C 1035.707031 610.632812 1037.160156 611.257812 1038.398438 612.503906 Z M 956.351562 468.167969 L 976.234375 468.167969 L 976.234375 429.648438 L 956.351562 429.648438 Z M 956.113281 423.035156 L 976.472656 423.035156 C 978.15625 423.035156 979.613281 423.660156 980.847656 424.90625 C 982.074219 426.144531 982.6875 427.628906 982.6875 429.335938 L 982.6875 468.40625 C 982.6875 470.144531 982.074219 471.621094 980.847656 472.855469 C 979.613281 474.082031 978.136719 474.695312 976.398438 474.695312 L 956.113281 474.695312 C 954.355469 474.695312 952.859375 474.082031 951.644531 472.855469 C 950.425781 471.621094 949.8125 470.144531 949.8125 468.40625 L 949.8125 429.335938 C 949.8125 427.628906 950.4375 426.144531 951.683594 424.90625 C 952.921875 423.660156 954.398438 423.035156 956.113281 423.035156 Z M 904.933594 468.167969 C 904.03125 468.167969 903.25 468.480469 902.617188 469.101562 C 901.984375 469.726562 901.671875 470.476562 901.671875 471.359375 C 901.671875 472.265625 901.984375 473.042969 902.617188 473.710938 C 903.25 474.363281 904.03125 474.695312 904.933594 474.695312 L 931.28125 474.695312 C 932.1875 474.695312 932.957031 474.386719 933.589844 473.75 C 934.222656 473.117188 934.546875 472.347656 934.546875 471.441406 L 934.546875 454.570312 C 934.546875 453.652344 934.222656 452.882812 933.589844 452.25 C 932.957031 451.617188 932.1875 451.304688 931.28125 451.304688 C 930.367188 451.304688 929.597656 451.625 928.964844 452.269531 C 928.332031 452.925781 928.019531 453.683594 928.019531 454.570312 L 928.019531 468.167969 L 921.492188 468.167969 L 921.492188 423.117188 L 905.089844 423.117188 C 904.1875 423.117188 903.40625 423.441406 902.785156 424.074219 C 902.140625 424.710938 901.828125 425.480469 901.828125 426.382812 C 901.828125 427.296875 902.140625 428.066406 902.785156 428.691406 C 903.40625 429.335938 904.1875 429.648438 905.089844 429.648438 L 914.964844 429.648438 L 914.964844 468.167969 Z M 860.210938 468.167969 L 880.105469 468.167969 L 880.105469 429.648438 L 860.210938 429.648438 Z M 859.972656 423.035156 L 880.332031 423.035156 C 882.015625 423.035156 883.472656 423.660156 884.707031 424.90625 C 885.933594 426.144531 886.546875 427.628906 886.546875 429.335938 L 886.546875 468.40625 C 886.546875 470.144531 885.933594 471.621094 884.707031 472.855469 C 883.472656 474.082031 881.996094 474.695312 880.261719 474.695312 L 859.972656 474.695312 C 858.214844 474.695312 856.71875 474.082031 855.503906 472.855469 C 854.289062 471.621094 853.683594 470.144531 853.683594 468.40625 L 853.683594 429.335938 C 853.683594 427.628906 854.296875 426.144531 855.546875 424.90625 C 856.792969 423.660156 858.269531 423.035156 859.972656 423.035156 Z M 825.351562 423.117188 L 808.949219 423.117188 C 808.046875 423.117188 807.277344 423.441406 806.644531 424.074219 C 806.007812 424.710938 805.6875 425.480469 805.6875 426.382812 C 805.6875 427.296875 806.007812 428.066406 806.644531 428.691406 C 807.277344 429.335938 808.046875 429.648438 808.949219 429.648438 L 818.824219 429.648438 L 818.824219 468.167969 L 808.796875 468.167969 C 807.890625 468.167969 807.121094 468.480469 806.488281 469.101562 C 805.855469 469.726562 805.53125 470.476562 805.53125 471.359375 C 805.53125 472.265625 805.855469 473.042969 806.488281 473.710938 C 807.121094 474.363281 807.890625 474.695312 808.796875 474.695312 L 835.140625 474.695312 C 836.046875 474.695312 836.828125 474.386719 837.449219 473.75 C 838.09375 473.117188 838.40625 472.347656 838.40625 471.441406 L 838.40625 454.570312 C 838.40625 453.652344 838.09375 452.882812 837.449219 452.25 C 836.828125 451.617188 836.046875 451.304688 835.140625 451.304688 C 834.238281 451.304688 833.46875 451.625 832.835938 452.269531 C 832.203125 452.925781 831.878906 453.683594 831.878906 454.570312 L 831.878906 468.167969 L 825.351562 468.167969 Z M 764.070312 468.167969 L 783.964844 468.167969 L 783.964844 429.648438 L 764.070312 429.648438 Z M 763.832031 423.035156 L 784.203125 423.035156 C 785.886719 423.035156 787.34375 423.660156 788.570312 424.90625 C 789.804688 426.144531 790.417969 427.628906 790.417969 429.335938 L 790.417969 468.40625 C 790.417969 470.144531 789.804688 471.621094 788.570312 472.855469 C 787.34375 474.082031 785.855469 474.695312 784.121094 474.695312 L 763.832031 474.695312 C 762.078125 474.695312 760.589844 474.082031 759.375 472.855469 C 758.148438 471.621094 757.546875 470.144531 757.546875 468.40625 L 757.546875 429.335938 C 757.546875 427.628906 758.167969 426.144531 759.40625 424.90625 C 760.652344 423.660156 762.128906 423.035156 763.832031 423.035156 Z M 712.664062 468.167969 C 711.75 468.167969 710.980469 468.480469 710.347656 469.101562 C 709.714844 469.726562 709.402344 470.476562 709.402344 471.359375 C 709.402344 472.265625 709.714844 473.042969 710.347656 473.710938 C 710.980469 474.363281 711.75 474.695312 712.664062 474.695312 L 739.003906 474.695312 C 739.90625 474.695312 740.6875 474.386719 741.320312 473.75 C 741.953125 473.117188 742.277344 472.347656 742.277344 471.441406 L 742.277344 454.570312 C 742.277344 453.652344 741.953125 452.882812 741.320312 452.25 C 740.6875 451.617188 739.90625 451.304688 739.003906 451.304688 C 738.097656 451.304688 737.328125 451.625 736.695312 452.269531 C 736.0625 452.925781 735.738281 453.683594 735.738281 454.570312 L 735.738281 468.167969 L 729.210938 468.167969 L 729.210938 423.117188 L 712.8125 423.117188 C 711.90625 423.117188 711.136719 423.441406 710.503906 424.074219 C 709.871094 424.710938 709.558594 425.480469 709.558594 426.382812 C 709.558594 427.296875 709.871094 428.066406 710.503906 428.691406 C 711.136719 429.335938 711.90625 429.648438 712.8125 429.648438 L 722.683594 429.648438 L 722.683594 468.167969 Z M 664.597656 468.167969 C 663.679688 468.167969 662.914062 468.480469 662.277344 469.101562 C 661.65625 469.726562 661.332031 470.476562 661.332031 471.359375 C 661.332031 472.265625 661.65625 473.042969 662.277344 473.710938 C 662.914062 474.363281 663.679688 474.695312 664.597656 474.695312 L 690.945312 474.695312 C 691.847656 474.695312 692.617188 474.386719 693.25 473.75 C 693.886719 473.117188 694.207031 472.347656 694.207031 471.441406 L 694.207031 454.570312 C 694.207031 453.652344 693.886719 452.882812 693.25 452.25 C 692.617188 451.617188 691.847656 451.304688 690.945312 451.304688 C 690.027344 451.304688 689.261719 451.625 688.625 452.269531 C 687.992188 452.925781 687.667969 453.683594 687.667969 454.570312 L 687.667969 468.167969 L 681.144531 468.167969 L 681.144531 423.117188 L 664.753906 423.117188 C 663.835938 423.117188 663.070312 423.441406 662.445312 424.074219 C 661.800781 424.710938 661.488281 425.480469 661.488281 426.382812 C 661.488281 427.296875 661.800781 428.066406 662.445312 428.691406 C 663.070312 429.335938 663.835938 429.648438 664.753906 429.648438 L 674.625 429.648438 L 674.625 468.167969 Z M 619.875 468.167969 L 639.765625 468.167969 L 639.765625 429.648438 L 619.875 429.648438 Z M 615.164062 472.855469 C 613.949219 471.621094 613.347656 470.144531 613.347656 468.40625 L 613.347656 429.335938 C 613.347656 427.628906 613.960938 426.144531 615.207031 424.90625 C 616.453125 423.660156 617.917969 423.035156 619.632812 423.035156 L 639.996094 423.035156 C 641.679688 423.035156 643.132812 423.660156 644.371094 424.90625 C 645.597656 426.144531 646.210938 427.628906 646.210938 429.335938 L 646.210938 468.40625 C 646.210938 470.144531 645.597656 471.621094 644.371094 472.855469 C 643.132812 474.082031 641.65625 474.695312 639.921875 474.695312 L 619.632812 474.695312 C 617.878906 474.695312 616.382812 474.082031 615.164062 472.855469 Z M 1158.183594 337.960938 L 1138.277344 337.960938 L 1138.277344 376.480469 L 1158.183594 376.480469 Z M 1158.335938 383.007812 L 1138.050781 383.007812 C 1136.292969 383.007812 1134.796875 382.394531 1133.582031 381.15625 C 1132.363281 379.929688 1131.75 378.445312 1131.75 376.707031 L 1131.75 337.636719 C 1131.75 335.933594 1132.375 334.457031 1133.621094 333.207031 C 1134.859375 331.96875 1136.335938 331.347656 1138.050781 331.347656 L 1158.410156 331.347656 C 1160.09375 331.347656 1161.550781 331.96875 1162.785156 333.207031 C 1164.011719 334.457031 1164.625 335.933594 1164.625 337.636719 L 1164.625 376.707031 C 1164.625 378.445312 1164.011719 379.929688 1162.785156 381.15625 C 1161.550781 382.394531 1160.074219 383.007812 1158.335938 383.007812 Z M 1110.914062 360.570312 C 1110.269531 361.226562 1109.957031 361.996094 1109.957031 362.871094 L 1109.957031 376.480469 L 1103.429688 376.480469 L 1103.429688 331.417969 L 1087.027344 331.417969 C 1086.125 331.417969 1085.34375 331.742188 1084.722656 332.375 C 1084.078125 333.011719 1083.765625 333.78125 1083.765625 334.695312 C 1083.765625 335.597656 1084.078125 336.367188 1084.722656 337.003906 C 1085.34375 337.636719 1086.125 337.960938 1087.027344 337.960938 L 1096.902344 337.960938 L 1096.902344 376.480469 L 1086.871094 376.480469 C 1085.96875 376.480469 1085.199219 376.789062 1084.554688 377.414062 C 1083.929688 378.027344 1083.609375 378.785156 1083.609375 379.660156 C 1083.609375 380.574219 1083.929688 381.355469 1084.554688 382.011719 C 1085.199219 382.675781 1085.96875 383.007812 1086.871094 383.007812 L 1113.21875 383.007812 C 1114.125 383.007812 1114.894531 382.6875 1115.539062 382.050781 C 1116.160156 381.417969 1116.484375 380.648438 1116.484375 379.742188 L 1116.484375 362.871094 C 1116.484375 361.964844 1116.160156 361.195312 1115.539062 360.5625 C 1114.894531 359.917969 1114.125 359.605469 1113.21875 359.605469 C 1112.316406 359.605469 1111.546875 359.925781 1110.914062 360.570312 Z M 1062.042969 337.960938 L 1042.148438 337.960938 L 1042.148438 376.480469 L 1062.042969 376.480469 Z M 1062.199219 383.007812 L 1041.910156 383.007812 C 1040.152344 383.007812 1038.667969 382.394531 1037.441406 381.15625 C 1036.226562 379.929688 1035.621094 378.445312 1035.621094 376.707031 L 1035.621094 337.636719 C 1035.621094 335.933594 1036.234375 334.457031 1037.484375 333.207031 C 1038.730469 331.96875 1040.207031 331.347656 1041.910156 331.347656 L 1062.269531 331.347656 C 1063.953125 331.347656 1065.421875 331.96875 1066.648438 333.207031 C 1067.882812 334.457031 1068.496094 335.933594 1068.496094 337.636719 L 1068.496094 376.707031 C 1068.496094 378.445312 1067.882812 379.929688 1066.648438 381.15625 C 1065.421875 382.394531 1063.933594 383.007812 1062.199219 383.007812 Z M 1019.398438 382.050781 C 1020.03125 381.417969 1020.34375 380.648438 1020.34375 379.742188 L 1020.34375 362.871094 C 1020.34375 361.964844 1020.03125 361.195312 1019.398438 360.5625 C 1018.765625 359.917969 1017.996094 359.605469 1017.082031 359.605469 C 1016.175781 359.605469 1015.40625 359.925781 1014.773438 360.570312 C 1014.140625 361.226562 1013.816406 361.996094 1013.816406 362.871094 L 1013.816406 376.480469 L 1007.289062 376.480469 L 1007.289062 331.417969 L 990.886719 331.417969 C 989.984375 331.417969 989.214844 331.742188 988.582031 332.375 C 987.945312 333.011719 987.625 333.78125 987.625 334.695312 C 987.625 335.597656 987.945312 336.367188 988.582031 337.003906 C 989.214844 337.636719 989.984375 337.960938 990.886719 337.960938 L 1000.761719 337.960938 L 1000.761719 376.480469 L 990.734375 376.480469 C 989.828125 376.480469 989.058594 376.789062 988.425781 377.414062 C 987.792969 378.027344 987.46875 378.785156 987.46875 379.660156 C 987.46875 380.574219 987.792969 381.355469 988.425781 382.011719 C 989.058594 382.675781 989.828125 383.007812 990.734375 383.007812 L 1017.082031 383.007812 C 1017.996094 383.007812 1018.765625 382.6875 1019.398438 382.050781 Z M 965.902344 337.960938 L 946.007812 337.960938 L 946.007812 376.480469 L 965.902344 376.480469 Z M 966.140625 331.347656 C 967.824219 331.347656 969.28125 331.96875 970.507812 333.207031 C 971.742188 334.457031 972.355469 335.933594 972.355469 337.636719 L 972.355469 376.707031 C 972.355469 378.445312 971.742188 379.929688 970.507812 381.15625 C 969.28125 382.394531 967.792969 383.007812 966.058594 383.007812 L 945.78125 383.007812 C 944.015625 383.007812 942.527344 382.394531 941.3125 381.15625 C 940.085938 379.929688 939.484375 378.445312 939.484375 376.707031 L 939.484375 337.636719 C 939.484375 335.933594 940.105469 334.457031 941.34375 333.207031 C 942.589844 331.96875 944.066406 331.347656 945.78125 331.347656 Z M 894.605469 376.480469 C 893.699219 376.480469 892.917969 376.789062 892.285156 377.414062 C 891.652344 378.027344 891.339844 378.785156 891.339844 379.660156 C 891.339844 380.574219 891.652344 381.355469 892.285156 382.011719 C 892.917969 382.675781 893.699219 383.007812 894.605469 383.007812 L 920.941406 383.007812 C 921.855469 383.007812 922.625 382.6875 923.257812 382.050781 C 923.890625 381.417969 924.214844 380.648438 924.214844 379.742188 L 924.214844 362.871094 C 924.214844 361.964844 923.890625 361.195312 923.257812 360.5625 C 922.625 359.917969 921.855469 359.605469 920.941406 359.605469 C 920.035156 359.605469 919.265625 359.925781 918.632812 360.570312 C 918 361.226562 917.675781 361.996094 917.675781 362.871094 L 917.675781 376.480469 L 911.148438 376.480469 L 911.148438 331.417969 L 894.75 331.417969 C 893.84375 331.417969 893.074219 331.742188 892.441406 332.375 C 891.808594 333.011719 891.496094 333.78125 891.496094 334.695312 C 891.496094 335.597656 891.808594 336.367188 892.441406 337.003906 C 893.074219 337.636719 893.84375 337.960938 894.75 337.960938 L 904.621094 337.960938 L 904.621094 376.480469 Z M 870.5625 360.570312 C 869.929688 361.226562 869.617188 361.996094 869.617188 362.871094 L 869.617188 376.480469 L 863.082031 376.480469 L 863.082031 331.417969 L 846.691406 331.417969 C 845.773438 331.417969 845.007812 331.742188 844.382812 332.375 C 843.738281 333.011719 843.425781 333.78125 843.425781 334.695312 C 843.425781 335.597656 843.738281 336.367188 844.382812 337.003906 C 845.007812 337.636719 845.773438 337.960938 846.691406 337.960938 L 856.5625 337.960938 L 856.5625 376.480469 L 846.535156 376.480469 C 845.628906 376.480469 844.851562 376.789062 844.214844 377.414062 C 843.59375 378.027344 843.269531 378.785156 843.269531 379.660156 C 843.269531 380.574219 843.59375 381.355469 844.214844 382.011719 C 844.851562 382.675781 845.628906 383.007812 846.535156 383.007812 L 872.882812 383.007812 C 873.785156 383.007812 874.554688 382.6875 875.1875 382.050781 C 875.824219 381.417969 876.144531 380.648438 876.144531 379.742188 L 876.144531 362.871094 C 876.144531 361.964844 875.824219 361.195312 875.1875 360.5625 C 874.554688 359.917969 873.785156 359.605469 872.882812 359.605469 C 871.976562 359.605469 871.199219 359.925781 870.5625 360.570312 Z M 821.703125 337.960938 L 801.8125 337.960938 L 801.8125 376.480469 L 821.703125 376.480469 Z M 821.933594 331.347656 C 823.617188 331.347656 825.070312 331.96875 826.308594 333.207031 C 827.535156 334.457031 828.148438 335.933594 828.148438 337.636719 L 828.148438 376.707031 C 828.148438 378.445312 827.535156 379.929688 826.308594 381.15625 C 825.070312 382.394531 823.59375 383.007812 821.859375 383.007812 L 801.570312 383.007812 C 799.816406 383.007812 798.320312 382.394531 797.101562 381.15625 C 795.886719 379.929688 795.273438 378.445312 795.273438 376.707031 L 795.273438 337.636719 C 795.273438 335.933594 795.898438 334.457031 797.144531 333.207031 C 798.382812 331.96875 799.855469 331.347656 801.570312 331.347656 Z M 943.890625 308.722656 L 963.78125 308.722656 L 963.78125 270.203125 L 943.890625 270.203125 Z M 939.179688 313.414062 C 937.964844 312.1875 937.363281 310.699219 937.363281 308.960938 L 937.363281 269.890625 C 937.363281 268.1875 937.984375 266.710938 939.222656 265.464844 C 940.46875 264.226562 941.945312 263.601562 943.648438 263.601562 L 964.019531 263.601562 C 965.695312 263.601562 967.160156 264.226562 968.386719 265.464844 C 969.613281 266.710938 970.238281 268.1875 970.238281 269.890625 L 970.238281 308.960938 C 970.238281 310.699219 969.613281 312.1875 968.386719 313.414062 C 967.160156 314.648438 965.675781 315.261719 963.9375 315.261719 L 943.648438 315.261719 C 941.894531 315.261719 940.40625 314.648438 939.179688 313.414062 Z M 892.484375 308.722656 C 891.570312 308.722656 890.800781 309.046875 890.164062 309.667969 C 889.53125 310.28125 889.210938 311.03125 889.210938 311.914062 C 889.210938 312.820312 889.53125 313.609375 890.164062 314.265625 C 890.800781 314.929688 891.570312 315.261719 892.484375 315.261719 L 918.820312 315.261719 C 919.722656 315.261719 920.503906 314.941406 921.136719 314.308594 C 921.773438 313.671875 922.09375 312.902344 922.09375 312 L 922.09375 295.125 C 922.09375 294.21875 921.773438 293.449219 921.136719 292.816406 C 920.503906 292.171875 919.722656 291.859375 918.820312 291.859375 C 917.917969 291.859375 917.148438 292.183594 916.511719 292.828125 C 915.878906 293.480469 915.558594 294.242188 915.558594 295.125 L 915.558594 308.722656 L 909.03125 308.722656 L 909.03125 266.355469 L 930.597656 266.355469 C 932.46875 266.355469 933.996094 264.839844 933.996094 262.957031 L 933.996094 258.796875 L 903.46875 258.796875 L 903.46875 262.957031 C 903.46875 263.207031 903.574219 263.433594 903.625 263.675781 L 892.628906 263.675781 C 891.722656 263.675781 890.957031 263.996094 890.320312 264.632812 C 889.6875 265.265625 889.375 266.046875 889.375 266.949219 C 889.375 267.855469 889.6875 268.625 890.320312 269.257812 C 890.957031 269.890625 891.722656 270.203125 892.628906 270.203125 L 902.503906 270.203125 L 902.503906 308.722656 Z M 847.75 308.722656 L 867.652344 308.722656 L 867.652344 270.203125 L 847.75 270.203125 Z M 843.050781 313.414062 C 841.835938 312.1875 841.222656 310.699219 841.222656 308.960938 L 841.222656 269.890625 C 841.222656 268.1875 841.847656 266.710938 843.09375 265.464844 C 844.332031 264.226562 845.804688 263.601562 847.519531 263.601562 L 867.882812 263.601562 C 869.566406 263.601562 871.019531 264.226562 872.246094 265.464844 C 873.484375 266.710938 874.097656 268.1875 874.097656 269.890625 L 874.097656 308.960938 C 874.097656 310.699219 873.484375 312.1875 872.246094 313.414062 C 871.019531 314.648438 869.542969 315.261719 867.796875 315.261719 L 847.519531 315.261719 C 845.753906 315.261719 844.269531 314.648438 843.050781 313.414062 Z M 799.691406 308.722656 L 819.574219 308.722656 L 819.574219 270.203125 L 799.691406 270.203125 Z M 794.980469 313.414062 C 793.765625 312.1875 793.152344 310.699219 793.152344 308.960938 L 793.152344 269.890625 C 793.152344 268.1875 793.777344 266.710938 795.023438 265.464844 C 796.261719 264.226562 797.738281 263.601562 799.453125 263.601562 L 819.8125 263.601562 C 821.496094 263.601562 822.949219 264.226562 824.1875 265.464844 C 825.414062 266.710938 826.027344 268.1875 826.027344 269.890625 L 826.027344 308.960938 C 826.027344 310.699219 825.414062 312.1875 824.1875 313.414062 C 822.949219 314.648438 821.476562 315.261719 819.738281 315.261719 L 799.453125 315.261719 C 797.695312 315.261719 796.199219 314.648438 794.980469 313.414062 Z M 751.621094 308.722656 L 771.515625 308.722656 L 771.515625 270.203125 L 751.621094 270.203125 Z M 745.082031 269.890625 C 745.082031 268.1875 745.707031 266.710938 746.953125 265.464844 C 748.191406 264.226562 749.667969 263.601562 751.382812 263.601562 L 771.742188 263.601562 C 773.425781 263.601562 774.882812 264.226562 776.117188 265.464844 C 777.34375 266.710938 777.96875 268.1875 777.96875 269.890625 L 777.96875 308.960938 C 777.96875 310.699219 777.34375 312.1875 776.117188 313.414062 C 774.882812 314.648438 773.40625 315.261719 771.667969 315.261719 L 751.382812 315.261719 C 749.625 315.261719 748.140625 314.648438 746.914062 313.414062 C 745.695312 312.1875 745.082031 310.699219 745.082031 308.960938 Z M 723.289062 308.722656 L 716.761719 308.722656 L 716.761719 263.675781 L 700.359375 263.675781 C 699.457031 263.675781 698.6875 263.996094 698.054688 264.632812 C 697.417969 265.265625 697.097656 266.046875 697.097656 266.949219 C 697.097656 267.855469 697.417969 268.625 698.054688 269.257812 C 698.6875 269.890625 699.457031 270.203125 700.359375 270.203125 L 710.234375 270.203125 L 710.234375 308.722656 L 700.203125 308.722656 C 699.300781 308.722656 698.53125 309.046875 697.898438 309.667969 C 697.261719 310.28125 696.941406 311.03125 696.941406 311.914062 C 696.941406 312.820312 697.261719 313.609375 697.898438 314.265625 C 698.53125 314.929688 699.300781 315.261719 700.203125 315.261719 L 726.550781 315.261719 C 727.457031 315.261719 728.226562 314.941406 728.859375 314.308594 C 729.503906 313.671875 729.816406 312.902344 729.816406 312 L 729.816406 295.125 C 729.816406 294.21875 729.503906 293.449219 728.859375 292.816406 C 728.226562 292.171875 727.457031 291.859375 726.550781 291.859375 C 725.648438 291.859375 724.878906 292.183594 724.246094 292.828125 C 723.601562 293.480469 723.289062 294.242188 723.289062 295.125 Z M 652.132812 308.722656 C 651.230469 308.722656 650.460938 309.046875 649.828125 309.667969 C 649.191406 310.28125 648.871094 311.03125 648.871094 311.914062 C 648.871094 312.820312 649.191406 313.609375 649.828125 314.265625 C 650.460938 314.929688 651.230469 315.261719 652.132812 315.261719 L 678.480469 315.261719 C 679.386719 315.261719 680.15625 314.941406 680.800781 314.308594 C 681.433594 313.671875 681.746094 312.902344 681.746094 312 L 681.746094 295.125 C 681.746094 294.21875 681.433594 293.449219 680.800781 292.816406 C 680.15625 292.171875 679.386719 291.859375 678.480469 291.859375 C 677.578125 291.859375 676.808594 292.183594 676.175781 292.828125 C 675.539062 293.480469 675.21875 294.242188 675.21875 295.125 L 675.21875 308.722656 L 668.691406 308.722656 L 668.691406 263.675781 L 652.289062 263.675781 C 651.386719 263.675781 650.617188 263.996094 649.984375 264.632812 C 649.347656 265.265625 649.027344 266.046875 649.027344 266.949219 C 649.027344 267.855469 649.347656 268.625 649.984375 269.257812 C 650.617188 269.890625 651.386719 270.203125 652.289062 270.203125 L 662.164062 270.203125 L 662.164062 308.722656 Z M 600.882812 287.628906 L 600.882812 308.960938 C 600.882812 310.699219 601.488281 312.1875 602.714844 313.414062 C 603.929688 314.648438 605.414062 315.261719 607.171875 315.261719 L 627.460938 315.261719 C 629.195312 315.261719 630.683594 314.648438 631.910156 313.414062 C 633.144531 312.1875 633.757812 310.699219 633.757812 308.960938 L 633.757812 269.890625 C 633.757812 268.1875 633.144531 266.710938 631.910156 265.464844 C 631.515625 265.058594 631.078125 264.746094 630.621094 264.464844 C 628.023438 266.347656 625.445312 268.269531 622.855469 270.203125 L 627.304688 270.203125 L 627.304688 308.722656 L 607.410156 308.722656 L 607.410156 282.273438 C 605.238281 284.03125 603.054688 285.820312 600.882812 287.628906 Z M 143.417969 424.003906 L 154.839844 424.003906 L 154.839844 404.675781 L 156.625 404.675781 L 156.625 424.003906 L 166.882812 424.003906 C 170.054688 424.003906 172.695312 423.097656 174.742188 421.308594 C 176.851562 419.460938 177.964844 416.910156 177.964844 413.949219 C 177.964844 411.628906 177.269531 409.65625 175.949219 408.15625 C 177.207031 406.410156 177.539062 404.582031 177.539062 403.136719 C 177.539062 400.308594 176.445312 397.832031 174.386719 395.992188 C 172.351562 394.175781 169.359375 393.289062 165.230469 393.289062 L 139.539062 393.289062 L 139.539062 404.675781 L 143.417969 404.675781 Z M 127.121094 404.207031 L 123.929688 404.207031 L 123.929688 393.289062 L 138.199219 393.289062 L 138.199219 424.003906 L 127.121094 424.003906 L 127.121094 404.207031 " fill-opacity="1" fill-rule="nonzero"/><path fill="rgb(47.059631%, 30.979919%, 36.859131%)" d="M 721.769531 605.226562 L 721.769531 637.925781 L 737.578125 650.214844 C 737.578125 650.214844 683.492188 709.757812 663.941406 709.757812 C 644.515625 709.757812 591.34375 654.925781 591.34375 654.925781 L 609.34375 641.929688 L 609.34375 608.917969 C 601.582031 600.902344 596.683594 590.234375 596.101562 576.898438 L 594.667969 541.847656 C 584.191406 542.804688 567.335938 512.6875 576.367188 498.484375 C 581.480469 490.449219 588.007812 495.855469 593.070312 502.832031 L 591.25 458.175781 C 590.554688 442.589844 603.003906 429.585938 618.59375 429.585938 L 709.308594 429.585938 C 724.898438 429.585938 737.339844 442.589844 736.652344 458.175781 L 734.347656 514.578125 C 737.785156 505.117188 745.84375 486.820312 753.261719 498.484375 C 762.804688 513.488281 743.441406 546.277344 733.253906 541.382812 L 731.800781 576.898438 C 731.300781 588.28125 727.644531 597.710938 721.769531 605.226562 Z M 416.378906 962.863281 L 326.695312 910.972656 L 287.800781 967.230469 L 287.71875 967.21875 L 272.441406 989.84375 C 257.578125 1011.863281 280.566406 1061.125 307 1063.859375 L 543.699219 1069.886719 L 544.957031 1057.671875 L 476.289062 1057.671875 L 474.09375 1034.933594 C 473.292969 1031.367188 475.632812 1027.894531 478.824219 1027.894531 L 548.035156 1027.894531 L 551.484375 994.449219 L 404.28125 979.261719 Z M 957.433594 1065.988281 L 820.488281 1049.238281 L 822.253906 1032.804688 C 822.804688 1030.316406 821.183594 1027.894531 818.949219 1027.894531 L 722.820312 1027.894531 L 725.761719 961.472656 L 869.980469 967.875 L 863.203125 955.359375 L 967.273438 920.984375 L 999.910156 992.535156 L 1002.457031 997.847656 C 1013.941406 1021.8125 983.964844 1067.164062 957.433594 1065.988281 " fill-opacity="1" fill-rule="nonzero"/><g clip-path="url(#clip-1)"><path fill="rgb(0%, 0%, 0%)" d="M 207.015625 975.910156 L 207.015625 984.59375 C 207.015625 986.152344 208.28125 987.421875 209.839844 987.421875 C 211.398438 987.421875 212.667969 986.152344 212.667969 984.59375 L 212.667969 975.910156 C 212.667969 974.351562 211.398438 973.085938 209.839844 973.085938 C 208.28125 973.085938 207.015625 974.351562 207.015625 975.910156 Z M 199.082031 984.59375 L 199.082031 975.910156 C 199.082031 974.351562 197.816406 973.085938 196.246094 973.085938 C 194.6875 973.085938 193.417969 974.351562 193.417969 975.910156 L 193.417969 984.59375 C 193.417969 986.152344 194.6875 987.421875 196.246094 987.421875 C 197.816406 987.421875 199.082031 986.152344 199.082031 984.59375 Z M 185.5 984.59375 L 185.5 975.910156 C 185.5 974.351562 184.230469 973.085938 182.671875 973.085938 C 181.101562 973.085938 179.835938 974.351562 179.835938 975.910156 L 179.835938 984.59375 C 179.835938 986.152344 181.101562 987.421875 182.671875 987.421875 C 184.230469 987.421875 185.5 986.152344 185.5 984.59375 Z M 171.90625 984.59375 L 171.90625 975.910156 C 171.90625 974.351562 170.636719 973.085938 169.078125 973.085938 C 167.507812 973.085938 166.25 974.351562 166.25 975.910156 L 166.25 984.59375 C 166.25 986.152344 167.507812 987.421875 169.078125 987.421875 C 170.636719 987.421875 171.90625 986.152344 171.90625 984.59375 Z M 158.320312 984.59375 L 158.320312 975.910156 C 158.320312 974.351562 157.0625 973.085938 155.492188 973.085938 C 153.933594 973.085938 152.667969 974.351562 152.667969 975.910156 L 152.667969 984.59375 C 152.667969 986.152344 153.933594 987.421875 155.492188 987.421875 C 157.0625 987.421875 158.320312 986.152344 158.320312 984.59375 Z M 144.734375 984.59375 L 144.734375 975.910156 C 144.734375 974.351562 143.46875 973.085938 141.898438 973.085938 C 140.339844 973.085938 139.070312 974.351562 139.070312 975.910156 L 139.070312 984.59375 C 139.070312 986.152344 140.339844 987.421875 141.898438 987.421875 C 143.46875 987.421875 144.734375 986.152344 144.734375 984.59375 Z M 131.152344 984.59375 L 131.152344 975.910156 C 131.152344 974.351562 129.882812 973.085938 128.324219 973.085938 C 126.753906 973.085938 125.488281 974.351562 125.488281 975.910156 L 125.488281 984.59375 C 125.488281 986.152344 126.753906 987.421875 128.324219 987.421875 C 129.882812 987.421875 131.152344 986.152344 131.152344 984.59375 Z M 117.558594 975.910156 C 117.558594 974.351562 116.289062 973.085938 114.730469 973.085938 C 113.171875 973.085938 111.902344 974.351562 111.902344 975.910156 L 111.902344 984.59375 C 111.902344 986.152344 113.171875 987.421875 114.730469 987.421875 C 116.289062 987.421875 117.558594 986.152344 117.558594 984.59375 Z M 119.523438 1000.84375 L 201.867188 1000.84375 C 203.4375 1000.84375 204.707031 999.574219 204.707031 998.015625 C 204.707031 996.445312 203.4375 995.175781 201.867188 995.175781 L 119.523438 995.175781 C 117.953125 995.175781 116.695312 996.445312 116.695312 998.015625 C 116.695312 999.574219 117.953125 1000.84375 119.523438 1000.84375 Z M 702.085938 494.96875 C 696.941406 494.9375 691.898438 496.238281 687.855469 498.878906 C 686.546875 499.742188 686.183594 501.5 687.035156 502.808594 C 687.886719 504.109375 689.644531 504.484375 690.953125 503.621094 C 694 501.625 698.011719 500.492188 701.960938 500.625 C 705.910156 500.71875 709.847656 501.988281 712.78125 504.121094 C 713.277344 504.484375 713.859375 504.660156 714.433594 504.660156 C 715.316406 504.660156 716.167969 504.253906 716.730469 503.496094 C 717.644531 502.226562 717.363281 500.460938 716.105469 499.546875 C 712.207031 496.707031 707.230469 495.085938 702.085938 494.96875 Z M 631.691406 495.5625 C 626.546875 495.25 621.441406 496.5 617.253906 498.992188 C 615.914062 499.792969 615.476562 501.53125 616.277344 502.871094 C 617.066406 504.214844 618.800781 504.648438 620.152344 503.859375 C 623.335938 501.957031 627.410156 501.019531 631.367188 501.21875 C 635.285156 501.4375 639.132812 502.839844 641.917969 505.054688 C 642.4375 505.472656 643.0625 505.667969 643.675781 505.667969 C 644.503906 505.667969 645.328125 505.304688 645.886719 504.609375 C 646.863281 503.382812 646.65625 501.601562 645.441406 500.625 C 641.710938 497.652344 636.824219 495.855469 631.691406 495.5625 Z M 640.089844 591.992188 C 639.839844 593.53125 640.878906 594.988281 642.417969 595.246094 C 643.125 595.359375 654.347656 597.179688 667.019531 597.179688 C 673.617188 597.179688 680.613281 596.679688 686.714844 595.207031 C 688.230469 594.832031 689.167969 593.300781 688.792969 591.785156 C 688.429688 590.265625 686.890625 589.320312 685.382812 589.707031 C 668.691406 593.761719 643.589844 589.707031 643.339844 589.664062 C 641.773438 589.382812 640.339844 590.453125 640.089844 591.992188 Z M 340.871094 880.28125 C 341.496094 880.574219 403.65625 908.75 421.855469 928.046875 C 422.40625 928.628906 423.15625 928.929688 423.90625 928.929688 C 424.601562 928.929688 425.308594 928.679688 425.859375 928.160156 C 426.992188 927.089844 427.042969 925.300781 425.972656 924.15625 C 407.027344 904.058594 345.796875 876.300781 343.199219 875.125 C 341.765625 874.480469 340.101562 875.125 339.457031 876.539062 C 338.8125 877.964844 339.445312 879.648438 340.871094 880.28125 Z M 857.238281 933.121094 C 857.925781 933.121094 858.621094 932.871094 859.171875 932.359375 C 889.613281 903.9375 952.121094 890.792969 952.746094 890.660156 C 954.273438 890.347656 955.261719 888.851562 954.949219 887.320312 C 954.636719 885.78125 953.128906 884.804688 951.601562 885.117188 C 948.980469 885.65625 886.921875 898.695312 855.304688 928.222656 C 854.164062 929.28125 854.101562 931.082031 855.171875 932.226562 C 855.722656 932.816406 856.480469 933.121094 857.238281 933.121094 Z M 733.128906 477.015625 C 733.410156 471.089844 727.882812 466.597656 722.144531 468.074219 L 668.585938 481.921875 C 668.585938 481.921875 634.238281 473.542969 611.902344 468.179688 C 603.304688 466.121094 595.074219 472.679688 595.148438 481.515625 L 595.34375 505.410156 L 597.144531 509.910156 C 598.308594 508.289062 600.207031 507.226562 602.359375 507.226562 L 653.152344 507.226562 C 656.6875 507.226562 659.566406 510.109375 659.566406 513.644531 L 659.566406 513.976562 L 673.722656 513.976562 L 673.722656 513.007812 C 673.722656 509.828125 676.308594 507.226562 679.488281 507.226562 L 731.570312 507.226562 C 731.625 507.226562 731.664062 507.25 731.71875 507.25 Z M 731.6875 522.894531 C 731.625 523.136719 731.550781 523.382812 731.5 523.613281 L 730.9375 523.894531 L 731.445312 513.007812 L 679.488281 512.894531 L 679.386719 544.335938 L 731.570312 544.4375 L 731.6875 544.335938 Z M 653.902344 513.644531 C 653.902344 513.238281 653.570312 512.894531 653.152344 512.894531 L 602.359375 512.894531 C 601.933594 512.894531 601.601562 513.238281 601.601562 513.644531 L 601.601562 543.6875 C 601.601562 544.105469 601.933594 544.4375 602.359375 544.4375 L 653.152344 544.4375 C 653.570312 544.4375 653.902344 544.105469 653.902344 543.6875 Z M 747.484375 402.625 C 759.664062 422.152344 761.078125 453.832031 750.195312 495.3125 C 749.054688 494.667969 747.910156 494.617188 746.777344 494.980469 L 737.339844 518.652344 L 737.339844 544.335938 C 737.339844 547.515625 734.753906 550.105469 731.570312 550.105469 L 679.488281 550.105469 C 676.308594 550.105469 673.722656 547.515625 673.722656 544.335938 L 673.722656 519.632812 L 659.566406 519.632812 L 659.566406 543.6875 C 659.566406 547.222656 656.6875 550.105469 653.152344 550.105469 L 602.359375 550.105469 C 598.828125 550.105469 595.949219 547.222656 595.949219 543.6875 L 595.949219 520.558594 C 595.417969 520.253906 594.980469 519.765625 594.742188 519.164062 L 585.210938 495.273438 C 583.246094 494.316406 581.273438 494.160156 579.402344 495.304688 C 571.824219 473.136719 564.933594 442.351562 573.800781 419 C 605.230469 336.191406 702.011719 389.890625 702.011719 389.890625 C 702.011719 389.890625 733.191406 379.722656 747.484375 402.625 Z M 1146.1875 140.089844 C 1145.324219 141.398438 1145.6875 143.15625 1147 144.007812 C 1147.476562 144.332031 1148.015625 144.476562 1148.546875 144.476562 C 1149.472656 144.476562 1150.375 144.027344 1150.917969 143.207031 C 1195.347656 75.648438 1152.632812 29.664062 1152.195312 29.207031 C 1151.113281 28.085938 1149.328125 28.042969 1148.195312 29.125 C 1147.0625 30.207031 1147.03125 31.996094 1148.109375 33.128906 C 1148.515625 33.542969 1188.167969 76.261719 1146.1875 140.089844 Z M 1128 135.421875 C 1128.476562 135.742188 1129.019531 135.886719 1129.546875 135.886719 C 1130.472656 135.886719 1131.378906 135.441406 1131.917969 134.609375 C 1166.765625 81.636719 1133.183594 45.488281 1132.84375 45.136719 C 1131.761719 44.003906 1129.984375 43.960938 1128.851562 45.042969 C 1127.71875 46.113281 1127.675781 47.910156 1128.746094 49.042969 C 1130.015625 50.375 1159.492188 82.40625 1127.1875 131.5 C 1126.324219 132.8125 1126.691406 134.566406 1128 135.421875 Z M 1109.199219 119.898438 C 1109.6875 120.222656 1110.226562 120.367188 1110.757812 120.367188 C 1111.671875 120.367188 1112.574219 119.917969 1113.117188 119.085938 C 1135.835938 84.570312 1113.824219 60.886719 1113.59375 60.65625 C 1112.511719 59.523438 1110.734375 59.484375 1109.613281 60.5625 C 1108.480469 61.636719 1108.4375 63.421875 1109.5 64.558594 C 1110.289062 65.386719 1128.550781 85.339844 1108.398438 115.980469 C 1107.535156 117.289062 1107.898438 119.046875 1109.199219 119.898438 Z M 1029.625 146.460938 C 1030.164062 146.460938 1030.695312 146.316406 1031.183594 145.996094 C 1032.484375 145.140625 1032.847656 143.382812 1031.984375 142.074219 C 990.097656 78.40625 1028.417969 36.847656 1030.070312 35.101562 C 1031.140625 33.96875 1031.101562 32.179688 1029.96875 31.109375 C 1028.84375 30.027344 1027.058594 30.070312 1025.976562 31.195312 C 1025.539062 31.652344 982.824219 77.636719 1027.253906 145.195312 C 1027.804688 146.015625 1028.699219 146.460938 1029.625 146.460938 Z M 1046.265625 136.59375 C 1046.804688 137.425781 1047.699219 137.875 1048.625 137.875 C 1049.15625 137.875 1049.695312 137.71875 1050.171875 137.40625 C 1051.484375 136.542969 1051.847656 134.796875 1050.984375 133.488281 C 1018.691406 84.394531 1048.144531 52.371094 1049.425781 51.03125 C 1050.496094 49.898438 1050.464844 48.109375 1049.332031 47.027344 C 1048.199219 45.945312 1046.410156 45.988281 1045.328125 47.121094 C 1044.988281 47.476562 1011.40625 83.625 1046.265625 136.59375 Z M 1067.414062 122.351562 C 1067.945312 122.351562 1068.484375 122.207031 1068.976562 121.882812 C 1070.273438 121.019531 1070.636719 119.273438 1069.773438 117.964844 C 1049.621094 87.324219 1067.871094 67.394531 1068.671875 66.554688 C 1069.742188 65.417969 1069.703125 63.632812 1068.578125 62.550781 C 1067.445312 61.46875 1065.660156 61.511719 1064.578125 62.644531 C 1064.347656 62.871094 1042.347656 86.554688 1065.054688 121.074219 C 1065.597656 121.90625 1066.5 122.351562 1067.414062 122.351562 Z M 234.722656 958.789062 L 92.488281 958.789062 L 102.890625 969.277344 L 224.320312 969.277344 Z M 240.28125 796.152344 C 240.28125 788.335938 233.953125 782.003906 226.136719 782.003906 C 218.320312 782.003906 211.992188 788.335938 211.992188 796.152344 L 211.992188 843.46875 L 193.449219 843.46875 L 193.449219 768.714844 C 193.449219 758.070312 184.824219 749.429688 174.171875 749.429688 L 155.609375 749.429688 C 144.953125 749.429688 136.328125 758.070312 136.328125 768.714844 L 136.328125 874.210938 L 121.382812 874.210938 L 121.382812 826.886719 C 121.382812 819.066406 115.050781 812.734375 107.238281 812.734375 C 99.429688 812.734375 93.089844 819.066406 93.089844 826.886719 L 93.089844 875.3125 C 93.089844 890.316406 105.292969 902.511719 120.289062 902.511719 L 136.328125 902.511719 L 136.328125 944.253906 L 193.449219 944.253906 L 193.449219 871.777344 L 213.082031 871.777344 C 228.082031 871.777344 240.28125 859.574219 240.28125 844.570312 Z M 1161.007812 953.101562 L 1161.007812 1010.003906 L 1169.59375 1010.003906 C 1171.058594 1010.003906 1172.367188 1009.078125 1172.855469 1007.695312 L 1180.953125 984.84375 C 1184.28125 975.476562 1184.789062 965.410156 1182.429688 955.742188 C 1182.054688 954.191406 1180.671875 953.101562 1179.074219 953.101562 Z M 1161.007812 938.953125 L 1179.074219 938.953125 C 1187.210938 938.953125 1194.246094 944.484375 1196.179688 952.394531 C 1199.183594 964.746094 1198.527344 977.605469 1194.289062 989.582031 L 1186.191406 1012.425781 C 1183.699219 1019.441406 1177.035156 1024.152344 1169.59375 1024.152344 L 1161.007812 1024.152344 L 1161.007812 1054.957031 C 1161.007812 1060.542969 1156.476562 1065.0625 1150.90625 1065.0625 L 1067.882812 1065.0625 C 1062.300781 1065.0625 1057.78125 1060.542969 1057.78125 1054.957031 L 1057.78125 931.113281 L 1161.007812 931.113281 Z M 695.351562 911.285156 C 695.351562 894.308594 679.105469 880.53125 659.066406 880.53125 C 639.027344 880.53125 622.785156 894.308594 622.785156 911.285156 C 622.785156 928.273438 639.027344 942.039062 659.066406 942.039062 C 679.105469 942.039062 695.351562 928.273438 695.351562 911.285156 Z M 823.710938 775.773438 C 824.90625 743.296875 837.003906 718.3125 837.554688 717.199219 C 838.238281 715.796875 839.933594 715.214844 841.347656 715.902344 C 842.738281 716.597656 843.320312 718.292969 842.636719 719.695312 C 842.5 719.957031 830.609375 744.574219 829.375 775.773438 L 840.015625 775.773438 C 847.4375 775.773438 853.394531 781.917969 853.144531 789.34375 L 845.328125 1025.734375 C 845.097656 1032.824219 839.289062 1038.4375 832.203125 1038.4375 L 475.226562 1038.4375 C 468.140625 1038.4375 462.339844 1032.824219 462.101562 1025.734375 L 454.285156 789.34375 C 454.046875 781.917969 459.992188 775.773438 467.421875 775.773438 L 487.085938 775.773438 C 487.824219 760.753906 477.503906 738.054688 477.398438 737.828125 C 476.746094 736.402344 477.359375 734.730469 478.78125 734.074219 C 480.207031 733.417969 481.878906 734.042969 482.535156 735.457031 C 482.992188 736.464844 493.40625 759.359375 492.75 775.773438 L 649.484375 775.773438 L 648.777344 724.769531 C 648.703125 719.757812 651.398438 715.121094 655.792969 712.699219 L 660.648438 710.027344 L 629.613281 695.042969 C 623.875 692.132812 618.84375 688.984375 614.550781 693.296875 L 599.835938 708.082031 C 597.082031 710.847656 592.363281 708.957031 592.277344 705.046875 L 591.261719 655.433594 C 590.21875 646.761719 609.34375 609.199219 609.34375 609.199219 C 609.34375 609.199219 618.625 670.5 661.976562 709.289062 L 671.382812 704.109375 C 713.675781 669.855469 721.769531 605.332031 721.769531 605.332031 C 721.769531 605.332031 738.535156 641.542969 737.578125 650.214844 L 740.375 694.679688 C 740.625 698.621094 736.175781 701.085938 732.976562 698.777344 L 729.347656 696.179688 C 722.394531 691.167969 712.09375 690.011719 703.53125 693.257812 L 678.386719 703.539062 L 678.386719 775.773438 Z M 1333 1065.699219 L 846.222656 1065.699219 L 848.445312 1047.691406 C 849.089844 1045.207031 847.21875 1042.785156 844.652344 1042.785156 L 453.347656 1042.785156 C 449.667969 1042.785156 446.988281 1046.257812 447.914062 1049.824219 L 449.667969 1065.699219 L 204.902344 1065.699219 L 208.550781 1057.132812 L 115.175781 1057.132812 L 118.835938 1065.699219 L 35.84375 1065.699219 C 26.644531 1065.699219 19.195312 1073.152344 19.195312 1082.355469 L 19.195312 1104.894531 C 19.195312 1114.09375 26.644531 1121.550781 35.84375 1121.550781 L 129.6875 1121.550781 L 129.6875 1200.273438 L 1235.539062 1200.273438 L 1235.539062 1121.550781 L 1333 1121.550781 C 1342.1875 1121.550781 1349.640625 1114.09375 1349.640625 1104.894531 L 1349.640625 1082.355469 C 1349.640625 1073.152344 1342.1875 1065.699219 1333 1065.699219 Z M 673.917969 570.242188 C 680.050781 568.019531 671.257812 550.789062 666.738281 542.734375 C 665.75 540.976562 663.328125 541.140625 662.601562 543.003906 C 659.585938 550.8125 653.652344 566.550781 653.703125 569.648438 C 653.765625 573.820312 665.894531 573.164062 673.917969 570.242188 Z M 633.613281 517.0625 C 630.714844 517.0625 628.363281 520.660156 628.363281 525.101562 C 628.363281 529.539062 630.714844 533.136719 633.613281 533.136719 C 636.511719 533.136719 638.863281 529.539062 638.863281 525.101562 C 638.863281 520.660156 636.511719 517.0625 633.613281 517.0625 Z M 699.589844 517.0625 C 696.691406 517.0625 694.332031 520.660156 694.332031 525.101562 C 694.332031 529.539062 696.691406 533.136719 699.589844 533.136719 C 702.480469 533.136719 704.828125 529.539062 704.828125 525.101562 C 704.828125 520.660156 702.480469 517.0625 699.589844 517.0625 Z M 661.875 662.222656 C 671.777344 665.238281 713.175781 623.628906 721.023438 606.203125 C 710.015625 619.542969 691.679688 626.425781 670.976562 626.425781 L 656.925781 626.425781 C 638.871094 626.425781 622.628906 621.195312 611.453125 611.019531 C 625.453125 627.445312 653.734375 659.726562 661.875 662.222656 Z M 603.484375 601.546875 C 603.484375 601.546875 603.546875 601.628906 603.660156 601.765625 C 603.605469 601.691406 603.578125 601.621094 603.523438 601.546875 Z M 1012.996094 221.984375 C 1012.996094 226.152344 1016.375 229.53125 1020.542969 229.53125 C 1024.707031 229.53125 1028.085938 226.152344 1028.085938 221.984375 C 1028.085938 217.816406 1024.707031 214.4375 1020.542969 214.4375 C 1016.375 214.4375 1012.996094 217.816406 1012.996094 221.984375 Z M 1042.429688 221.984375 C 1042.429688 226.152344 1045.816406 229.53125 1049.976562 229.53125 C 1054.152344 229.53125 1057.53125 226.152344 1057.53125 221.984375 C 1057.53125 217.816406 1054.152344 214.4375 1049.976562 214.4375 C 1045.816406 214.4375 1042.429688 217.816406 1042.429688 221.984375 Z M 1072.351562 221.984375 C 1072.351562 226.152344 1075.742188 229.53125 1079.910156 229.53125 C 1084.078125 229.53125 1087.453125 226.152344 1087.453125 221.984375 C 1087.453125 217.816406 1084.078125 214.4375 1079.910156 214.4375 C 1075.742188 214.4375 1072.351562 217.816406 1072.351562 221.984375 Z M 935.554688 221.984375 C 935.554688 217.816406 932.175781 214.4375 928.007812 214.4375 C 923.839844 214.4375 920.460938 217.816406 920.460938 221.984375 C 920.460938 226.152344 923.839844 229.53125 928.007812 229.53125 C 932.175781 229.53125 935.554688 226.152344 935.554688 221.984375 Z M 890.746094 242.808594 L 883.523438 242.808594 L 883.523438 199.109375 L 890.746094 199.109375 L 890.746094 188.570312 C 890.746094 186.6875 892.277344 185.167969 894.144531 185.167969 L 934.347656 185.167969 L 1008.796875 166.589844 C 1011.394531 165.933594 1014.035156 167.515625 1014.679688 170.113281 L 1015.925781 175.09375 C 1016.570312 177.695312 1014.992188 180.324219 1012.394531 180.980469 L 995.597656 185.167969 L 1080.042969 185.167969 L 1080.042969 84.839844 C 1080.042969 82.160156 1082.214844 79.984375 1084.886719 79.984375 L 1090.019531 79.984375 C 1092.703125 79.984375 1094.875 82.160156 1094.875 84.839844 L 1094.875 185.167969 L 1121.265625 185.167969 C 1123.136719 185.167969 1124.664062 186.6875 1124.664062 188.570312 L 1124.664062 199.109375 L 1131.347656 199.109375 L 1131.347656 242.808594 L 1124.664062 242.808594 L 1124.664062 255.398438 C 1124.664062 257.28125 1123.136719 258.796875 1121.265625 258.796875 L 894.144531 258.796875 C 892.277344 258.796875 890.746094 257.28125 890.746094 255.398438 Z M 463.492188 247.589844 L 720.554688 247.589844 L 720.554688 95.738281 L 463.492188 95.738281 Z M 727.257812 171.664062 C 727.257812 176.0625 730.832031 179.636719 735.230469 179.636719 C 739.625 179.636719 743.203125 176.0625 743.203125 171.664062 C 743.203125 167.265625 739.625 163.699219 735.230469 163.699219 C 730.832031 163.699219 727.257812 167.265625 727.257812 171.664062 Z M 431.347656 247.632812 L 431.347656 95.695312 C 431.347656 86.898438 438.476562 79.777344 447.269531 79.777344 L 736.925781 79.777344 C 745.71875 79.777344 752.835938 86.898438 752.835938 95.695312 L 752.835938 247.632812 C 752.835938 256.429688 745.71875 263.550781 736.925781 263.550781 L 447.269531 263.550781 C 438.476562 263.550781 431.347656 256.429688 431.347656 247.632812 Z M 55.851562 440.324219 L 55.851562 445.128906 L 60.652344 445.128906 L 60.652344 440.324219 Z M 69.652344 440.324219 L 69.652344 445.128906 L 74.457031 445.128906 L 74.457031 440.324219 Z M 175.136719 413.949219 C 175.136719 411.246094 173.921875 409.414062 171.476562 408.449219 C 173.628906 407.109375 174.710938 405.339844 174.710938 403.136719 C 174.710938 401.097656 173.972656 399.425781 172.496094 398.09375 C 171.019531 396.773438 168.597656 396.117188 165.230469 396.117188 L 159.464844 396.117188 L 159.464844 421.175781 L 166.882812 421.175781 C 169.367188 421.175781 171.363281 420.507812 172.871094 419.179688 C 174.386719 417.859375 175.136719 416.109375 175.136719 413.949219 Z M 155.929688 396.117188 L 142.367188 396.117188 L 142.367188 401.835938 L 146.253906 401.835938 L 146.253906 421.175781 L 152.011719 421.175781 L 152.011719 401.835938 L 155.929688 401.835938 Z M 135.359375 396.117188 L 126.753906 396.117188 L 126.753906 401.378906 L 129.945312 401.378906 L 129.945312 421.175781 L 135.359375 421.175781 Z M 250.769531 584.371094 L 227.914062 584.371094 C 228.183594 584.808594 228.382812 585.285156 228.382812 585.835938 L 228.382812 621.375 C 228.382812 630.035156 224.984375 638.132812 218.820312 644.183594 C 212.792969 650.121094 204.863281 653.363281 196.433594 653.363281 C 196.234375 653.363281 196.046875 653.355469 195.851562 653.355469 L 94.992188 651.605469 C 77.949219 651.316406 64.15625 637.726562 63.59375 620.675781 L 62.855469 494.90625 L 52.640625 494.90625 C 50.863281 494.90625 49.417969 493.460938 49.417969 491.683594 L 49.417969 454.652344 L 64.164062 454.652344 L 64.164062 440.324219 L 66.910156 440.324219 L 66.910156 454.652344 L 81.65625 454.652344 L 81.65625 491.683594 C 81.65625 493.460938 80.214844 494.90625 78.445312 494.90625 L 68.511719 494.90625 L 69.25 620.5625 C 69.707031 634.527344 81.054688 645.703125 95.085938 645.941406 L 195.953125 647.699219 C 203.023438 647.792969 209.777344 645.140625 214.851562 640.148438 C 219.921875 635.160156 222.71875 628.496094 222.71875 621.375 L 222.71875 585.835938 C 222.71875 585.285156 222.925781 584.808594 223.1875 584.371094 L 118.160156 584.371094 C 112.722656 584.371094 108.308594 579.964844 108.308594 574.515625 L 108.308594 392.9375 C 108.308594 387.5 112.722656 383.082031 118.160156 383.082031 L 250.769531 383.082031 C 256.214844 383.082031 260.625 387.5 260.625 392.9375 L 260.625 574.515625 C 260.625 579.964844 256.214844 584.371094 250.769531 584.371094 Z M 165.617188 410.871094 L 165.136719 410.871094 L 165.136719 416.296875 C 166.582031 416.265625 167.652344 416.050781 168.382812 415.621094 C 169.097656 415.207031 169.453125 414.519531 169.453125 413.554688 C 169.453125 411.765625 168.171875 410.871094 165.617188 410.871094 Z M 168.953125 403.6875 C 168.953125 402.667969 168.640625 401.960938 168.039062 401.566406 C 167.433594 401.160156 166.46875 400.953125 165.136719 400.921875 L 165.136719 406.328125 C 167.675781 406.265625 168.953125 405.382812 168.953125 403.6875 Z M 72.71875 257.84375 C 74.695312 259.171875 77.148438 259.589844 79.453125 258.976562 L 84.046875 257.75 C 83.925781 257.46875 83.800781 257.199219 83.707031 256.886719 L 52.484375 145.984375 C 52.421875 145.785156 52.410156 145.578125 52.378906 145.390625 L 47.621094 146.941406 C 46.070312 147.449219 44.699219 148.375 43.722656 149.675781 C 39.648438 155.039062 30.925781 171.683594 40.550781 208.28125 C 48.542969 238.679688 65.507812 252.957031 72.71875 257.84375 Z M 112.402344 248.808594 C 112.515625 249.242188 112.589844 249.671875 112.621094 250.105469 L 114.324219 249.648438 C 118.753906 248.464844 121.351562 243.867188 120.074219 239.460938 L 91.738281 141.429688 C 90.449219 136.980469 85.730469 134.476562 81.324219 135.917969 L 80.402344 136.222656 C 80.710938 136.742188 80.992188 137.292969 81.167969 137.894531 Z M 249.511719 260.691406 L 254.105469 261.917969 C 256.414062 262.53125 258.867188 262.113281 260.839844 260.773438 C 268.054688 255.898438 285.015625 241.625 293.007812 211.222656 C 302.632812 174.625 293.925781 157.980469 289.847656 152.617188 C 288.863281 151.316406 287.492188 150.390625 285.941406 149.882812 L 281.179688 148.332031 C 281.148438 148.53125 281.140625 148.730469 281.078125 148.925781 L 249.855469 259.839844 C 249.761719 260.140625 249.636719 260.410156 249.511719 260.691406 Z M 213.488281 242.402344 L 241.820312 144.371094 C 243.109375 139.921875 247.828125 137.425781 252.234375 138.863281 L 253.160156 139.164062 C 252.847656 139.683594 252.566406 140.234375 252.402344 140.847656 L 221.160156 251.75 C 221.042969 252.1875 220.972656 252.621094 220.941406 253.050781 L 219.238281 252.589844 C 214.808594 251.40625 212.210938 246.8125 213.488281 242.402344 " fill-opacity="1" fill-rule="nonzero"/></g></svg>