<svg xmlns="http://www.w3.org/2000/svg" width="1350" viewBox="0 0 1350 1200" height="1200" version="1.0"><defs><clipPath id="a"><path d="M 165.824219 6.636719 L 1199.054688 6.636719 L 1199.054688 1193.109375 L 165.824219 1193.109375 Z M 165.824219 6.636719"/></clipPath><clipPath id="b"><path d="M 595 144 L 1199.054688 144 L 1199.054688 1142 L 595 1142 Z M 595 144"/></clipPath><clipPath id="c"><path d="M 166 6.636719 L 949 6.636719 L 949 1193.109375 L 166 1193.109375 Z M 166 6.636719"/></clipPath></defs><g clip-path="url(#a)"><path fill="#BD9262" d="M 999.882812 1010.617188 L 928.269531 1017.34375 C 932.132812 1046.757812 938.085938 1080.871094 946.789062 1124.769531 C 900.785156 1147.738281 835.902344 1183.488281 752.125 1176.058594 C 751.941406 1161.132812 751.726562 1146.175781 751.46875 1131.222656 C 693.273438 1145.507812 634.875 1142.507812 595.378906 1137.269531 C 594.914062 1155.363281 594.433594 1173.429688 593.949219 1191.402344 C 558.578125 1191.941406 460.589844 1207.925781 337.71875 1130.339844 C 340.285156 1116.007812 342.8125 1101.789062 345.300781 1087.738281 L 351.625 1051.847656 C 351.625 1051.847656 150.941406 1081.914062 166.707031 903.46875 C 166.984375 892.082031 169.269531 878.449219 173.253906 863.148438 L 173.253906 863.140625 C 202.066406 752.492188 319.53125 554.972656 407.710938 496.800781 C 466.054688 458.300781 523.691406 445.101562 562.050781 440.820312 C 561.949219 439.910156 562.554688 439.054688 563.472656 438.886719 C 564.421875 438.730469 565.347656 439.351562 565.535156 440.320312 L 565.554688 440.449219 C 591.691406 437.820312 607.992188 439.34375 608.023438 439.351562 L 608.1875 431.085938 C 608.078125 431.066406 607.964844 431.066406 607.855469 431.058594 L 607.855469 398.113281 C 607.855469 398.113281 607.957031 398.152344 608.105469 398.195312 C 606.292969 397.445312 604.5 396.664062 602.753906 395.800781 C 582.273438 385.65625 570.160156 368.585938 563.902344 337.621094 C 561.066406 338.398438 558.058594 338.761719 554.957031 338.546875 C 540.289062 337.554688 529.207031 324.839844 530.183594 310.15625 C 530.664062 303.253906 533.75 297.171875 538.394531 292.738281 C 538.382812 292.738281 538.375 292.738281 538.375 292.75 C 538.375 292.75 533.035156 247.953125 547.8125 225.578125 C 547.8125 225.578125 547.8125 225.578125 547.8125 225.566406 L 547.8125 225.558594 C 547.765625 225.363281 543.976562 205.804688 551.460938 188.972656 L 532.578125 165.140625 L 453.660156 156.632812 C 453.660156 156.632812 519.390625 81.824219 596.003906 44.523438 C 596.003906 44.523438 595.992188 44.542969 595.984375 44.550781 C 619.949219 30.722656 646.449219 17.617188 675.140625 6.636719 C 675.140625 6.636719 773.621094 32.03125 866.191406 134.164062 L 786.449219 144.378906 C 793.3125 172.96875 810.015625 217.292969 848.820312 229.375 L 849.75 228.523438 C 849.75 228.523438 855.761719 224.324219 875.507812 230.183594 C 891.179688 234.828125 903.097656 235.515625 903.097656 235.515625 C 903.097656 235.515625 906.003906 262.589844 889.738281 271.164062 C 889.738281 271.164062 867.121094 265.953125 851.226562 251.734375 C 845.292969 246.417969 844.761719 239.945312 845.171875 235.898438 C 832.363281 232.003906 800.753906 215.386719 781.664062 144.992188 L 777.039062 145.589844 C 774.882812 158.0625 759.964844 171.902344 759.964844 171.902344 C 775.015625 191.519531 769.644531 228.1875 769.644531 228.1875 L 769.636719 228.195312 C 777.421875 253.988281 774.457031 289.136719 774.457031 289.136719 C 774.457031 289.136719 773.25 288.503906 771.28125 287.816406 C 781.347656 292.40625 788.027344 302.835938 787.230469 314.519531 C 786.207031 329.566406 773.175781 340.945312 758.128906 339.914062 C 756.484375 339.800781 754.886719 339.523438 753.335938 339.144531 C 747.734375 366.636719 737.433594 380.578125 720.023438 392.894531 L 721.167969 431.058594 C 721.167969 431.058594 738.945312 432.886719 765.355469 439.695312 C 765.578125 438.839844 766.347656 438.257812 767.265625 438.378906 C 768.234375 438.496094 768.921875 439.390625 768.789062 440.363281 L 768.761719 440.597656 C 819.664062 454.195312 899.640625 485.867188 948.601562 556.605469 C 973.289062 554.941406 978.816406 565.511719 978.816406 565.511719 C 978.816406 565.511719 979.144531 565.039062 979.773438 564.296875 C 979.597656 563.953125 979.488281 563.75 979.476562 563.71875 C 979.023438 562.855469 979.347656 561.789062 980.210938 561.324219 C 980.917969 560.960938 981.753906 561.128906 982.28125 561.675781 C 986.089844 558.136719 993.011719 553.476562 1002.828125 553.660156 C 1014.8125 553.894531 1020.625 559.78125 1022.714844 562.578125 C 1022.847656 562.484375 1022.976562 562.390625 1023.132812 562.34375 C 1023.792969 562.140625 1024.480469 562.34375 1024.925781 562.808594 C 1027.164062 560.851562 1032.253906 557.253906 1039.121094 557.820312 C 1045.957031 558.371094 1050.089844 562.707031 1051.835938 565.019531 C 1051.917969 564.964844 1051.984375 564.890625 1052.078125 564.84375 C 1052.8125 564.519531 1053.65625 564.761719 1054.148438 565.363281 C 1056.871094 563.332031 1063.402344 559.363281 1070.730469 561.574219 C 1080.363281 564.492188 1080.929688 572.960938 1080.929688 572.960938 C 1080.929688 572.960938 1087.773438 587.210938 1091.546875 606.753906 L 1176.878906 614.367188 C 1176.878906 614.367188 1213.792969 666.054688 1184.226562 772.878906 C 1154.664062 879.691406 1154.589844 959.542969 1199.054688 1018.457031 L 999.882812 1010.617188"/></g><g clip-path="url(#b)"><path fill="#FFF" d="M 1081.550781 694.832031 C 1078.066406 710.027344 1083.53125 725.175781 1094.472656 734.777344 L 1071.195312 766.40625 L 1092.382812 766.089844 L 1095.28125 783.523438 L 1113.355469 746.527344 L 1123.589844 787.582031 L 1129.554688 772.441406 L 1148.578125 776.796875 L 1133.371094 743.128906 C 1146.933594 738.988281 1157.976562 727.941406 1161.378906 713.128906 C 1166.421875 691.089844 1152.65625 669.121094 1130.605469 664.070312 C 1108.5625 659.015625 1086.605469 672.789062 1081.550781 694.832031 Z M 1091.546875 606.753906 L 1176.878906 614.367188 C 1176.878906 614.367188 1213.792969 666.054688 1184.226562 772.878906 C 1154.664062 879.691406 1154.589844 959.542969 1199.054688 1018.457031 L 999.882812 1010.617188 L 999.902344 1010.617188 L 844.449219 1004.496094 C 844.449219 1004.496094 832.175781 975.695312 825.785156 938.632812 C 820.84375 903.117188 823.472656 874.769531 823.519531 874.304688 C 825.050781 862.878906 827.875 851.699219 832.410156 841.230469 C 861.417969 774.289062 881.386719 686.285156 862.828125 586.347656 L 904.601562 590.070312 L 940.214844 594 C 960.371094 616.960938 963.128906 652.960938 963.128906 652.960938 C 963.128906 652.960938 972.378906 659.304688 976.261719 660.308594 C 997.671875 665.84375 1000.824219 645.382812 1000.824219 645.382812 C 1000.824219 645.382812 1001.667969 656.90625 1019.148438 662.070312 C 1033.695312 666.355469 1038.226562 655.085938 1039.425781 650.667969 C 1039.527344 650.695312 1039.613281 650.742188 1039.714844 650.742188 C 1039.742188 650.75 1039.769531 650.75 1039.796875 650.75 C 1040.402344 650.75 1040.921875 650.425781 1041.238281 649.960938 C 1058.496094 661.476562 1064.914062 649.996094 1066.660156 645.492188 C 1066.792969 645.53125 1066.902344 645.585938 1067.03125 645.605469 C 1067.097656 645.605469 1067.152344 645.613281 1067.21875 645.613281 C 1067.804688 645.613281 1068.3125 645.296875 1068.640625 644.832031 C 1082.023438 653.460938 1093.589844 639.976562 1093.589844 639.976562 C 1094.628906 628.308594 1093.496094 616.828125 1091.546875 606.753906 Z M 704.105469 556.308594 C 704.085938 556.308594 704.066406 556.308594 704.039062 556.308594 C 703.546875 556.289062 703.074219 556.058594 702.757812 555.675781 L 695.445312 546.992188 C 694.296875 547.949219 692.53125 549.324219 690.308594 550.867188 C 690.839844 551.671875 690.617188 552.761719 689.816406 553.300781 C 689.585938 553.457031 689.355469 553.578125 689.121094 553.726562 L 719.113281 751.347656 C 721.09375 752.140625 722.792969 753.558594 724.140625 755.714844 C 730.984375 766.675781 727.714844 777.738281 722.914062 787.964844 L 723.007812 789.066406 L 726.164062 787.339844 C 726.863281 786.960938 727.6875 787.117188 728.234375 787.648438 C 731.65625 785.890625 735.984375 783.570312 740.339844 780.988281 C 735.878906 680.84375 731.050781 594.121094 727.382812 533.207031 L 705.375 555.769531 C 705.042969 556.113281 704.578125 556.308594 704.105469 556.308594 Z M 699.265625 459.777344 L 662.804688 507.582031 L 608.023438 439.351562 C 608.023438 439.351562 607.648438 473.738281 606.871094 531.492188 C 607.539062 530.886719 608.558594 530.867188 609.230469 531.492188 L 631.039062 551.671875 L 653.5 508.929688 C 653.75 508.445312 654.222656 508.101562 654.773438 508.011719 C 655.3125 507.90625 655.867188 508.09375 656.277344 508.464844 L 661.886719 513.722656 L 665.433594 509.171875 C 665.761719 508.742188 666.261719 508.492188 666.800781 508.484375 C 666.808594 508.484375 666.820312 508.484375 666.828125 508.484375 C 667.347656 508.484375 667.851562 508.714844 668.195312 509.117188 L 704.207031 551.90625 L 725.671875 529.902344 C 726.070312 529.492188 726.628906 529.355469 727.160156 529.417969 C 725.207031 497.039062 723.601562 472.308594 722.597656 457.167969 C 720.824219 448.277344 720.15625 439.445312 721.167969 431.058594 L 702.117188 456.035156 Z M 735.917969 941.097656 L 737.730469 962.414062 L 676.453125 1018.457031 L 643.421875 987.351562 C 642.679688 987.5625 641.933594 987.789062 641.246094 987.964844 L 641.246094 987.945312 C 640.050781 1008.863281 638.089844 1021.660156 638.089844 1021.660156 C 638.089844 1021.660156 622.605469 1023.804688 598.027344 1026.957031 C 597.199219 1063.550781 596.308594 1100.46875 595.378906 1137.269531 C 634.875 1142.507812 693.273438 1145.507812 751.46875 1131.222656 C 750.351562 1064.925781 748.558594 998.710938 746.40625 934.964844 C 743.367188 936.757812 739.828125 938.828125 735.917969 941.097656 Z M 635.285156 552.222656 C 635.144531 552.089844 635.0625 551.925781 634.988281 551.765625 L 633.09375 555.359375 C 632.832031 555.851562 632.367188 556.1875 631.828125 556.28125 C 631.726562 556.300781 631.625 556.308594 631.523438 556.308594 C 631.085938 556.308594 630.660156 556.140625 630.324219 555.835938 L 606.832031 534.101562 C 606.367188 568.539062 605.753906 611.023438 604.992188 659.3125 L 605.605469 662.710938 C 605.726562 663.390625 605.429688 664.042969 604.910156 664.429688 C 604.390625 697.820312 603.796875 733.886719 603.117188 771.933594 C 604.175781 771.484375 604.761719 771.234375 604.761719 771.234375 C 606.683594 775.171875 608.515625 779.148438 610.25 783.140625 L 639.828125 555.777344 C 636.9375 553.875 635.339844 552.285156 635.285156 552.222656 Z M 781.664062 144.992188 L 786.449219 144.378906 C 793.3125 172.96875 810.015625 217.292969 848.820312 229.375 L 849.75 228.523438 C 849.75 228.523438 855.761719 224.324219 875.507812 230.183594 C 891.179688 234.828125 903.097656 235.515625 903.097656 235.515625 C 903.097656 235.515625 906.003906 262.589844 889.738281 271.164062 C 889.738281 271.164062 867.121094 265.953125 851.226562 251.734375 C 845.292969 246.417969 844.761719 239.945312 845.171875 235.898438 C 832.363281 232.003906 800.753906 215.386719 781.664062 144.992188"/></g><g clip-path="url(#c)"><path fill="#1E3148" d="M 644.460938 344.855469 C 646.078125 345.265625 647.730469 345.46875 649.421875 345.46875 C 654.492188 345.46875 659.878906 343.628906 665.519531 339.949219 C 666.335938 339.414062 666.570312 338.316406 666.039062 337.5 C 665.5 336.683594 664.414062 336.449219 663.578125 336.980469 C 656.945312 341.316406 650.804688 342.820312 645.382812 341.4375 C 637.914062 339.542969 634.160156 332.742188 634.125 332.667969 C 633.660156 331.824219 632.589844 331.480469 631.726562 331.953125 C 630.863281 332.417969 630.539062 333.488281 631.003906 334.351562 C 631.179688 334.683594 635.480469 342.550781 644.460938 344.855469 Z M 604.992188 659.3125 C 605.753906 611.023438 606.367188 568.539062 606.832031 534.101562 L 606.824219 534.089844 C 606.109375 533.433594 606.0625 532.308594 606.722656 531.59375 C 606.769531 531.546875 606.824219 531.527344 606.871094 531.492188 C 607.648438 473.738281 608.023438 439.351562 608.023438 439.351562 C 607.992188 439.34375 591.691406 437.820312 565.554688 440.449219 Z M 595.742188 1027.253906 C 616.632812 893.746094 568.050781 786.023438 568.050781 786.023438 L 525.566406 801.246094 C 581.457031 970.222656 540.464844 1034.042969 540.464844 1034.042969 Z M 511.585938 805.675781 C 511.269531 804.746094 510.257812 804.261719 509.339844 804.578125 C 508.484375 804.875 422.90625 834.21875 404.960938 828.320312 C 404.460938 828.160156 403.734375 827.789062 403.234375 826.488281 C 397.511719 811.804688 434.574219 740.0625 449.34375 713.667969 C 449.816406 712.8125 449.519531 711.734375 448.65625 711.261719 C 447.808594 710.789062 446.722656 711.085938 446.25 711.941406 C 444.046875 715.867188 392.441406 808.546875 399.925781 827.773438 C 400.6875 829.742188 402.042969 831.085938 403.855469 831.683594 C 405.730469 832.304688 408.222656 832.582031 411.195312 832.582031 C 438.625 832.574219 507.277344 809.039062 510.492188 807.921875 C 511.410156 807.605469 511.902344 806.605469 511.585938 805.675781 Z M 598.027344 1026.957031 C 597.199219 1063.550781 596.308594 1100.46875 595.378906 1137.269531 C 594.914062 1155.363281 594.433594 1173.429688 593.949219 1191.402344 C 558.578125 1191.941406 460.589844 1207.925781 337.71875 1130.339844 C 340.285156 1116.007812 342.8125 1101.789062 345.300781 1087.738281 L 344.828125 1090.429688 C 344.828125 1090.429688 479.613281 1056.046875 532.792969 1034.933594 L 351.625 1051.847656 C 351.671875 1051.585938 351.71875 1051.335938 351.765625 1051.078125 C 349.859375 1051.160156 347.976562 1051.234375 346.117188 1051.308594 C 182.507812 1034.191406 173.253906 863.167969 173.253906 863.140625 C 202.066406 752.492188 319.53125 554.972656 407.710938 496.800781 C 466.054688 458.300781 523.691406 445.101562 562.050781 440.820312 C 562.050781 440.867188 562.042969 440.902344 562.050781 440.941406 L 602.125 663.335938 C 602.28125 664.191406 603.015625 664.792969 603.871094 664.792969 C 603.972656 664.792969 604.074219 664.785156 604.1875 664.765625 C 604.464844 664.71875 604.695312 664.589844 604.910156 664.429688 C 604.390625 697.820312 603.796875 733.886719 603.117188 771.933594 C 604.175781 771.484375 604.761719 771.234375 604.761719 771.234375 C 606.683594 775.171875 608.515625 779.148438 610.25 783.140625 C 615.238281 794.585938 619.484375 806.242188 623.097656 817.953125 C 639.734375 871.945312 642.789062 926.914062 642.074219 966.117188 C 642.035156 967.855469 642 969.5625 641.953125 971.226562 L 641.246094 987.945312 C 640.050781 1008.863281 638.089844 1021.660156 638.089844 1021.660156 C 638.089844 1021.660156 622.605469 1023.804688 598.027344 1026.957031 Z M 166.707031 903.46875 C 167.800781 891.050781 169.917969 877.65625 173.253906 863.148438 C 169.269531 878.449219 166.984375 892.082031 166.707031 903.46875 Z M 825.785156 938.632812 C 828.703125 959.53125 834.21875 982.882812 844.449219 1004.496094 C 844.449219 1004.496094 832.175781 975.695312 825.785156 938.632812 Z M 827.792969 1026.777344 C 827.792969 1026.777344 795.550781 984.683594 823.519531 874.269531 C 823.519531 874.269531 823.519531 874.304688 823.519531 874.304688 C 825.050781 862.878906 827.875 851.699219 832.410156 841.230469 C 861.417969 774.289062 881.386719 686.285156 862.828125 586.347656 L 904.601562 590.070312 L 904.472656 590.050781 C 904.472656 590.050781 923.457031 558.371094 948.359375 556.613281 C 948.445312 556.613281 948.519531 556.613281 948.601562 556.605469 C 899.640625 485.867188 819.664062 454.195312 768.761719 440.597656 L 739.484375 667.28125 C 739.363281 668.175781 738.601562 668.824219 737.730469 668.824219 C 737.65625 668.824219 737.582031 668.816406 737.496094 668.804688 C 736.53125 668.683594 735.84375 667.792969 735.972656 666.828125 L 765.28125 439.910156 C 765.289062 439.824219 765.335938 439.769531 765.355469 439.695312 C 738.945312 432.886719 721.167969 431.058594 721.167969 431.058594 C 720.15625 439.445312 720.824219 448.277344 722.597656 457.167969 C 723.601562 472.308594 725.207031 497.039062 727.160156 529.417969 C 727.53125 529.464844 727.882812 529.59375 728.160156 529.882812 C 728.867188 530.5625 728.878906 531.683594 728.191406 532.382812 L 727.382812 533.207031 C 731.050781 594.121094 735.878906 680.84375 740.339844 780.988281 C 741.527344 780.28125 742.71875 779.558594 743.898438 778.824219 C 748.066406 776.203125 752.453125 773.796875 756.539062 772.164062 C 770.527344 764.835938 792.847656 753.261719 806.085938 746.945312 C 806.085938 746.945312 834.460938 746.917969 822.035156 777.085938 L 787.117188 799.285156 C 787.15625 799.359375 787.21875 799.398438 787.257812 799.472656 C 787.664062 800.363281 787.285156 801.414062 786.402344 801.832031 L 785.203125 802.386719 C 785.035156 803.101562 784.859375 803.828125 784.664062 804.578125 C 784.664062 804.578125 807.003906 815.511719 798.113281 839.484375 C 798.589844 839.660156 798.980469 840.023438 799.15625 840.523438 C 799.386719 841.183594 799.191406 841.878906 798.738281 842.34375 C 802.414062 846.21875 812.300781 858.792969 801.515625 872.910156 C 801.785156 873.136719 802.027344 873.402344 802.128906 873.765625 C 802.304688 874.332031 802.148438 874.898438 801.8125 875.335938 C 806.074219 878.847656 818.09375 890.800781 806.417969 905.921875 C 806.417969 905.921875 785.890625 916.304688 756.417969 928.734375 C 756.949219 928.519531 757.441406 928.316406 757.886719 928.121094 C 757.886719 928.121094 753.5 930.777344 746.40625 934.964844 C 748.558594 998.710938 750.351562 1064.925781 751.46875 1131.222656 C 751.726562 1146.175781 751.941406 1161.132812 752.125 1176.058594 C 835.902344 1183.488281 900.785156 1147.738281 946.789062 1124.769531 C 938.085938 1080.871094 932.132812 1046.757812 928.269531 1017.34375 Z M 555.085938 324.589844 C 555.066406 324.589844 552.910156 324.875 552.09375 323.769531 C 551.628906 323.148438 550.886719 321.050781 553.886719 315.011719 C 556.164062 310.433594 556.46875 306.367188 554.796875 302.929688 C 552.011719 297.179688 544.730469 295.601562 544.421875 295.527344 C 543.484375 295.320312 542.519531 295.953125 542.324219 296.902344 C 542.117188 297.867188 542.730469 298.796875 543.6875 299 C 543.753906 299.019531 549.605469 300.347656 551.613281 304.480469 C 552.78125 306.875 552.476562 309.886719 550.710938 313.433594 C 547.832031 319.246094 547.347656 323.316406 549.253906 325.878906 C 550.589844 327.679688 552.800781 328.175781 554.453125 328.175781 C 554.917969 328.175781 555.335938 328.136719 555.671875 328.070312 C 556.636719 327.914062 557.296875 327.003906 557.128906 326.039062 C 556.960938 325.070312 556.042969 324.421875 555.085938 324.589844 Z M 608.402344 287.257812 C 610.464844 287.277344 612.351562 285.996094 613.78125 283.933594 C 615.398438 281.613281 616.457031 278.277344 616.492188 274.515625 C 616.550781 269.175781 614.570312 264.585938 611.710938 262.628906 C 613.363281 262.136719 614.589844 261.996094 614.617188 261.996094 C 615.59375 261.902344 616.296875 261.039062 616.207031 260.0625 C 616.113281 259.089844 615.203125 258.429688 614.28125 258.476562 C 613.921875 258.511719 605.484375 259.367188 601.34375 265.65625 C 600.839844 266.425781 601.027344 267.421875 601.734375 267.988281 C 601.035156 269.863281 600.601562 272.019531 600.582031 274.359375 C 600.554688 276.523438 600.898438 278.539062 601.464844 280.332031 C 602.765625 284.398438 605.355469 287.222656 608.402344 287.257812 Z M 756.363281 322.992188 C 755.953125 323.875 756.34375 324.921875 757.226562 325.339844 C 757.988281 325.695312 759.1875 326.039062 760.488281 326.039062 C 761.667969 326.039062 762.929688 325.75 763.996094 324.90625 C 766.503906 322.925781 767.117188 318.875 765.855469 312.523438 C 765.085938 308.640625 765.585938 305.648438 767.324219 303.644531 C 770.359375 300.140625 776.371094 300.429688 776.40625 300.421875 C 777.464844 300.550781 778.21875 299.734375 778.285156 298.757812 C 778.332031 297.78125 777.585938 296.945312 776.613281 296.890625 C 776.296875 296.863281 768.863281 296.492188 764.667969 301.3125 C 762.160156 304.183594 761.398438 308.1875 762.390625 313.210938 C 763.691406 319.796875 762.429688 321.636719 761.824219 322.117188 C 760.726562 322.992188 758.722656 322.128906 758.710938 322.128906 C 757.820312 321.71875 756.769531 322.097656 756.363281 322.992188 Z M 711.710938 287.167969 C 714.757812 287.203125 717.378906 284.378906 718.6875 280.285156 C 719.21875 278.613281 719.550781 276.753906 719.570312 274.757812 C 719.625 269.566406 717.722656 265.097656 714.945312 263.183594 C 715.648438 263.027344 716.125 262.980469 716.140625 262.980469 C 717.109375 262.898438 717.832031 262.042969 717.75 261.066406 C 717.675781 260.09375 716.785156 259.394531 715.84375 259.449219 C 715.492188 259.480469 707.335938 260.222656 704.78125 267.003906 C 704.558594 267.605469 704.707031 268.246094 705.089844 268.71875 C 704.484375 270.476562 704.09375 272.464844 704.078125 274.609375 C 704.046875 278.09375 704.902344 281.242188 706.316406 283.515625 C 707.699219 285.753906 709.59375 287.148438 711.710938 287.167969 Z M 654.296875 317.957031 C 654.445312 317.964844 654.59375 317.964844 654.753906 317.964844 C 658.894531 317.964844 664.238281 315.308594 666.335938 310.65625 C 667.878906 307.246094 668.222656 301.636719 661.125 294.335938 C 658.105469 291.226562 656.714844 287.910156 656.992188 284.464844 C 657.585938 277.210938 665.277344 271.453125 665.351562 271.394531 C 666.140625 270.820312 666.316406 269.707031 665.734375 268.925781 C 665.148438 268.136719 664.042969 267.960938 663.261719 268.542969 C 662.882812 268.8125 654.207031 275.289062 653.460938 284.15625 C 653.089844 288.671875 654.816406 292.925781 658.589844 296.808594 C 663.113281 301.453125 664.664062 305.742188 663.113281 309.199219 C 661.476562 312.800781 657.027344 314.445312 654.464844 314.417969 C 653.339844 314.269531 652.664062 315.125 652.617188 316.097656 C 652.570312 317.082031 653.324219 317.902344 654.296875 317.957031 Z M 640.46875 132.714844 C 685.703125 148.394531 715.289062 144.875 728.460938 138.167969 C 734.738281 134.960938 743.65625 128.824219 752.359375 126.128906 C 739.96875 112.988281 707.941406 84.121094 667.644531 86.65625 C 638.117188 88.511719 617.597656 97.273438 603.664062 106.941406 C 602.71875 109.039062 597.582031 121.039062 598.824219 131.46875 C 610.816406 127.421875 625.714844 127.605469 640.46875 132.714844 Z M 595.984375 44.550781 C 619.949219 30.722656 646.449219 17.617188 675.140625 6.636719 C 675.140625 6.636719 773.621094 32.03125 866.191406 134.164062 L 786.449219 144.378906 L 781.664062 144.992188 L 777.039062 145.589844 C 777.484375 143.007812 777.402344 140.488281 776.507812 138.167969 C 771.957031 126.257812 764.414062 123.742188 756.296875 125.171875 C 744.59375 112.410156 710.679688 80.367188 667.421875 83.117188 C 635.839844 85.113281 614.234375 94.847656 599.8125 105.371094 C 552.523438 89.171875 595.210938 45.339844 595.984375 44.550781"/></g><path fill="#F4B41A" d="M 695.445312 546.992188 L 666.882812 513.0625 L 663.492188 517.417969 C 662.890625 518.191406 661.777344 518.328125 661.003906 517.726562 C 660.984375 517.714844 660.976562 517.6875 660.957031 517.667969 C 660.941406 517.652344 660.902344 517.640625 660.882812 517.625 L 655.550781 512.636719 L 636.289062 549.277344 C 636.835938 549.203125 637.402344 549.332031 637.820312 549.761719 C 638.636719 550.585938 658.300781 570.035156 687.847656 550.355469 C 688.65625 549.816406 689.761719 550.03125 690.300781 550.847656 C 690.308594 550.847656 690.308594 550.855469 690.308594 550.867188 C 692.53125 549.324219 694.296875 547.949219 695.445312 546.992188 Z M 1081.550781 694.832031 C 1078.066406 710.027344 1083.53125 725.175781 1094.472656 734.777344 L 1071.195312 766.40625 L 1092.382812 766.089844 L 1095.28125 783.523438 L 1113.355469 746.527344 L 1123.589844 787.582031 L 1129.554688 772.441406 L 1148.578125 776.796875 L 1133.371094 743.128906 C 1146.933594 738.988281 1157.976562 727.941406 1161.378906 713.128906 C 1166.421875 691.089844 1152.65625 669.121094 1130.605469 664.070312 C 1108.5625 659.015625 1086.605469 672.789062 1081.550781 694.832031 Z M 568.050781 786.023438 L 525.566406 801.246094 C 581.457031 970.222656 540.464844 1034.042969 540.464844 1034.042969 L 595.742188 1027.253906 C 616.632812 893.746094 568.050781 786.023438 568.050781 786.023438 Z M 776.507812 138.167969 C 771.957031 126.257812 764.414062 123.742188 756.296875 125.171875 C 754.996094 125.394531 753.6875 125.722656 752.359375 126.128906 C 743.65625 128.824219 734.738281 134.960938 728.460938 138.167969 C 715.289062 144.875 685.703125 148.394531 640.46875 132.714844 C 625.714844 127.605469 610.816406 127.421875 598.824219 131.46875 C 582.980469 136.8125 572.230469 149.574219 573.691406 168.316406 C 571.488281 168.996094 569.25 169.988281 567.058594 171.382812 C 567.03125 171.445312 558.328125 195.234375 573.515625 204.316406 C 573.515625 204.316406 551.964844 224.945312 551.964844 250.21875 C 551.964844 278.214844 559.5625 291.457031 559.5625 291.457031 C 559.5625 291.457031 559.507812 291.4375 559.414062 291.410156 C 560.269531 291.792969 561.113281 292.210938 561.949219 292.75 C 571.089844 298.636719 586.191406 226.292969 590.160156 206.398438 C 590.242188 205.953125 590.328125 205.542969 590.410156 205.164062 C 590.855469 205.023438 591.433594 204.847656 592.109375 204.667969 C 599.765625 202.570312 621.0625 198.363281 640.46875 209.507812 C 664.644531 223.394531 685.117188 228.699219 693.542969 209.507812 C 693.542969 209.507812 702.375 254.324219 722.738281 227.878906 C 722.738281 227.878906 727.929688 248.863281 740.0625 253.386719 C 742.457031 273.996094 745.996094 292.285156 750.882812 289.136719 C 758.265625 284.390625 766.785156 286.246094 771.28125 287.816406 C 773.25 288.503906 774.457031 289.136719 774.457031 289.136719 C 774.457031 289.136719 777.421875 253.988281 769.636719 228.195312 L 769.644531 228.1875 C 769.644531 228.1875 775.015625 191.519531 759.964844 171.902344 C 759.964844 171.902344 774.882812 158.0625 777.039062 145.589844 C 777.484375 143.007812 777.402344 140.488281 776.507812 138.167969 Z M 642.1875 966.097656 C 642.148438 966.109375 642.113281 966.109375 642.074219 966.117188 C 642.035156 967.855469 642 969.5625 641.953125 971.226562 L 642.175781 966.097656 Z M 723.007812 789.066406 L 722.914062 787.964844 C 722.671875 788.484375 722.421875 789.003906 722.171875 789.523438 Z M 676.453125 1018.457031 L 737.730469 962.414062 L 735.917969 941.097656 C 709.324219 956.496094 665.40625 980.894531 643.421875 987.351562 Z M 676.40625 777.320312 C 694.566406 757.925781 709.992188 747.707031 719.113281 751.347656 L 689.121094 553.726562 C 679.007812 560.300781 669.882812 562.570312 662.148438 562.570312 C 652.058594 562.570312 644.351562 558.769531 639.828125 555.777344 L 610.25 783.140625 C 615.238281 794.585938 619.484375 806.242188 623.097656 817.953125 C 636.472656 809.800781 660.96875 793.804688 676.40625 777.320312 Z M 547.8125 225.578125 C 547.8125 225.578125 547.8125 225.578125 547.8125 225.566406 C 547.8125 225.566406 547.8125 225.558594 547.8125 225.558594 L 547.8125 225.566406 C 547.8125 225.578125 547.8125 225.578125 547.8125 225.578125 Z M 566.417969 171.78125 C 566.492188 171.726562 566.566406 171.6875 566.648438 171.632812 C 566.566406 171.679688 566.492188 171.734375 566.417969 171.78125 Z M 628.195312 308.917969 C 628.300781 298.230469 622.464844 288.867188 613.78125 283.933594 C 612.351562 285.996094 610.464844 287.277344 608.402344 287.257812 C 605.355469 287.222656 602.765625 284.398438 601.464844 280.332031 C 601 280.304688 600.527344 280.246094 600.042969 280.238281 C 584.355469 280.089844 571.515625 292.683594 571.378906 308.363281 C 571.21875 324.070312 583.804688 336.90625 599.511719 337.042969 C 615.203125 337.210938 628.046875 324.617188 628.195312 308.917969 Z M 691.15625 308.371094 C 691.265625 297.578125 697.386719 288.246094 706.316406 283.515625 C 707.699219 285.753906 709.59375 287.148438 711.710938 287.167969 C 714.757812 287.203125 717.378906 284.378906 718.6875 280.285156 C 719.066406 280.273438 719.449219 280.238281 719.847656 280.238281 C 735.539062 280.394531 748.125 293.222656 747.984375 308.902344 C 747.835938 324.605469 734.988281 337.191406 719.300781 337.054688 C 703.613281 336.894531 691.015625 324.050781 691.15625 308.371094"/><path d="M 725.671875 529.902344 L 704.207031 551.90625 L 668.195312 509.117188 C 667.851562 508.714844 667.347656 508.484375 666.828125 508.484375 C 666.820312 508.484375 666.808594 508.484375 666.800781 508.484375 C 666.261719 508.492188 665.761719 508.742188 665.433594 509.171875 L 661.886719 513.722656 L 656.277344 508.464844 C 655.867188 508.09375 655.3125 507.90625 654.773438 508.011719 C 654.222656 508.101562 653.75 508.445312 653.5 508.929688 L 631.039062 551.671875 L 609.230469 531.492188 C 608.558594 530.867188 607.539062 530.886719 606.871094 531.492188 C 606.824219 531.527344 606.769531 531.546875 606.722656 531.59375 C 606.0625 532.308594 606.109375 533.433594 606.824219 534.089844 L 606.832031 534.101562 L 630.324219 555.835938 C 630.660156 556.140625 631.085938 556.308594 631.523438 556.308594 C 631.625 556.308594 631.726562 556.300781 631.828125 556.28125 C 632.367188 556.1875 632.832031 555.851562 633.09375 555.359375 L 634.988281 551.765625 C 635.0625 551.925781 635.144531 552.089844 635.285156 552.222656 C 635.339844 552.285156 636.9375 553.875 639.828125 555.777344 C 644.351562 558.769531 652.058594 562.570312 662.148438 562.570312 C 669.882812 562.570312 679.007812 560.300781 689.121094 553.726562 C 689.355469 553.578125 689.585938 553.457031 689.816406 553.300781 C 690.617188 552.761719 690.839844 551.671875 690.308594 550.867188 C 690.308594 550.855469 690.308594 550.847656 690.300781 550.847656 C 689.761719 550.03125 688.65625 549.816406 687.847656 550.355469 C 658.300781 570.035156 638.636719 550.585938 637.820312 549.761719 C 637.402344 549.332031 636.835938 549.203125 636.289062 549.277344 L 655.550781 512.636719 L 660.882812 517.625 C 660.902344 517.640625 660.941406 517.652344 660.957031 517.667969 C 660.976562 517.6875 660.984375 517.714844 661.003906 517.726562 C 661.777344 518.328125 662.890625 518.191406 663.492188 517.417969 L 666.882812 513.0625 L 695.445312 546.992188 L 702.757812 555.675781 C 703.074219 556.058594 703.546875 556.289062 704.039062 556.308594 C 704.066406 556.308594 704.085938 556.308594 704.105469 556.308594 C 704.578125 556.308594 705.042969 556.113281 705.375 555.769531 L 727.382812 533.207031 L 728.191406 532.382812 C 728.878906 531.683594 728.867188 530.5625 728.160156 529.882812 C 727.882812 529.59375 727.53125 529.464844 727.160156 529.417969 C 726.628906 529.355469 726.070312 529.492188 725.671875 529.902344 Z M 173.253906 863.140625 L 173.253906 863.148438 C 169.917969 877.65625 167.800781 891.050781 166.707031 903.46875 C 150.941406 1081.914062 351.625 1051.847656 351.625 1051.847656 C 349.757812 1051.6875 347.945312 1051.496094 346.117188 1051.308594 C 182.507812 1034.191406 173.253906 863.167969 173.253906 863.140625 Z M 566.648438 171.632812 C 566.566406 171.6875 566.492188 171.726562 566.417969 171.78125 C 566.492188 171.734375 566.566406 171.679688 566.648438 171.632812 Z M 538.394531 292.738281 C 538.382812 292.738281 538.375 292.738281 538.375 292.75 C 538.375 292.75 533.035156 247.953125 547.8125 225.578125 C 547.8125 225.578125 547.8125 225.578125 547.8125 225.566406 L 547.8125 225.558594 C 547.765625 225.363281 543.976562 205.804688 551.460938 188.972656 L 532.578125 165.140625 L 453.660156 156.632812 C 453.660156 156.632812 519.390625 81.824219 596.003906 44.523438 C 596.003906 44.523438 595.992188 44.542969 595.984375 44.550781 C 595.210938 45.339844 552.523438 89.171875 599.8125 105.371094 C 614.234375 94.847656 635.839844 85.113281 667.421875 83.117188 C 710.679688 80.367188 744.59375 112.410156 756.296875 125.171875 C 754.996094 125.394531 753.6875 125.722656 752.359375 126.128906 C 739.96875 112.988281 707.941406 84.121094 667.644531 86.65625 C 638.117188 88.511719 617.597656 97.273438 603.664062 106.941406 C 602.71875 109.039062 597.582031 121.039062 598.824219 131.46875 C 582.980469 136.8125 572.230469 149.574219 573.691406 168.316406 C 571.488281 168.996094 569.25 169.988281 567.058594 171.382812 C 567.03125 171.445312 558.328125 195.234375 573.515625 204.316406 C 573.515625 204.316406 551.964844 224.945312 551.964844 250.21875 C 551.964844 278.214844 559.5625 291.457031 559.5625 291.457031 C 559.5625 291.457031 559.507812 291.4375 559.414062 291.410156 C 558.085938 291.03125 547.65625 288.289062 538.394531 292.738281 Z M 715.277344 395.910156 C 667.433594 417.089844 612.117188 399.523438 608.105469 398.195312 C 607.957031 398.152344 607.855469 398.113281 607.855469 398.113281 L 607.855469 431.058594 C 607.964844 431.066406 608.078125 431.066406 608.1875 431.085938 C 694.117188 438.898438 715.277344 395.910156 715.277344 395.910156 Z M 642.1875 966.097656 L 642.175781 966.097656 L 641.953125 971.226562 L 641.246094 987.945312 L 641.246094 987.964844 C 641.933594 987.789062 642.679688 987.5625 643.421875 987.351562 C 665.40625 980.894531 709.324219 956.496094 735.917969 941.097656 C 739.828125 938.828125 743.367188 936.757812 746.40625 934.964844 C 753.5 930.777344 757.886719 928.121094 757.886719 928.121094 C 757.441406 928.316406 756.949219 928.519531 756.417969 928.734375 C 734.320312 937.828125 642.574219 965.980469 642.1875 966.097656 Z M 844.449219 1004.496094 C 834.21875 982.882812 828.703125 959.53125 825.785156 938.632812 C 820.84375 903.117188 823.472656 874.769531 823.519531 874.304688 C 823.519531 874.304688 823.519531 874.269531 823.519531 874.269531 C 795.550781 984.683594 827.792969 1026.777344 827.792969 1026.777344 L 928.269531 1017.34375 L 999.882812 1010.617188 L 999.902344 1010.617188 Z M 532.792969 1034.933594 L 351.625 1051.847656 L 345.300781 1087.738281 L 344.828125 1090.429688 C 344.828125 1090.429688 479.613281 1056.046875 532.792969 1034.933594 Z M 602.125 663.335938 C 602.28125 664.191406 603.015625 664.792969 603.871094 664.792969 C 603.972656 664.792969 604.074219 664.785156 604.1875 664.765625 C 604.464844 664.71875 604.695312 664.589844 604.910156 664.429688 C 605.429688 664.042969 605.726562 663.390625 605.605469 662.710938 L 604.992188 659.3125 L 565.554688 440.449219 L 565.535156 440.320312 C 565.347656 439.351562 564.421875 438.730469 563.472656 438.886719 C 562.554688 439.054688 561.949219 439.910156 562.050781 440.820312 C 562.050781 440.867188 562.042969 440.902344 562.050781 440.941406 Z M 735.972656 666.828125 C 735.84375 667.792969 736.53125 668.683594 737.496094 668.804688 C 737.582031 668.816406 737.65625 668.824219 737.730469 668.824219 C 738.601562 668.824219 739.363281 668.175781 739.484375 667.28125 L 768.761719 440.597656 L 768.789062 440.363281 C 768.921875 439.390625 768.234375 438.496094 767.265625 438.378906 C 766.347656 438.257812 765.578125 438.839844 765.355469 439.695312 C 765.335938 439.769531 765.289062 439.824219 765.28125 439.910156 Z M 511.585938 805.675781 C 511.269531 804.746094 510.257812 804.261719 509.339844 804.578125 C 508.484375 804.875 422.90625 834.21875 404.960938 828.320312 C 404.460938 828.160156 403.734375 827.789062 403.234375 826.488281 C 397.511719 811.804688 434.574219 740.0625 449.34375 713.667969 C 449.816406 712.8125 449.519531 711.734375 448.65625 711.261719 C 447.808594 710.789062 446.722656 711.085938 446.25 711.941406 C 444.046875 715.867188 392.441406 808.546875 399.925781 827.773438 C 400.6875 829.742188 402.042969 831.085938 403.855469 831.683594 C 405.730469 832.304688 408.222656 832.582031 411.195312 832.582031 C 438.625 832.574219 507.277344 809.039062 510.492188 807.921875 C 511.410156 807.605469 511.902344 806.605469 511.585938 805.675781 Z M 799.925781 872.578125 L 757.367188 885.46875 C 756.4375 885.757812 755.898438 886.742188 756.1875 887.679688 C 756.417969 888.441406 757.125 888.933594 757.886719 888.933594 C 758.054688 888.933594 758.21875 888.914062 758.386719 888.859375 L 800.949219 875.96875 C 801.308594 875.855469 801.589844 875.613281 801.8125 875.335938 C 802.148438 874.898438 802.304688 874.332031 802.128906 873.765625 C 802.027344 873.402344 801.785156 873.136719 801.515625 872.910156 C 801.078125 872.566406 800.492188 872.402344 799.925781 872.578125 Z M 796.898438 839.445312 L 751.53125 855.402344 C 750.613281 855.738281 750.128906 856.742188 750.445312 857.660156 C 750.707031 858.394531 751.394531 858.851562 752.125 858.851562 C 752.3125 858.851562 752.515625 858.8125 752.710938 858.746094 L 798.078125 842.78125 C 798.339844 842.6875 798.550781 842.53125 798.738281 842.34375 C 799.191406 841.878906 799.386719 841.183594 799.15625 840.523438 C 798.980469 840.023438 798.589844 839.660156 798.113281 839.484375 C 797.734375 839.335938 797.308594 839.296875 796.898438 839.445312 Z M 696.171875 803.726562 C 695.308594 804.1875 694.992188 805.265625 695.457031 806.113281 C 695.78125 806.707031 696.386719 807.039062 697.015625 807.039062 C 697.304688 807.039062 697.59375 806.976562 697.863281 806.828125 L 727.863281 790.441406 C 728.730469 789.976562 729.042969 788.902344 728.570312 788.046875 C 728.476562 787.886719 728.355469 787.769531 728.234375 787.648438 C 727.6875 787.117188 726.863281 786.960938 726.164062 787.339844 L 723.007812 789.066406 L 722.171875 789.523438 Z M 784.898438 798.617188 L 736.976562 821 C 736.09375 821.410156 735.703125 822.460938 736.121094 823.351562 C 736.429688 823.992188 737.070312 824.371094 737.730469 824.371094 C 737.980469 824.371094 738.238281 824.316406 738.480469 824.207031 L 785.203125 802.386719 L 786.402344 801.832031 C 787.285156 801.414062 787.664062 800.363281 787.257812 799.472656 C 787.21875 799.398438 787.15625 799.359375 787.117188 799.285156 C 786.644531 798.550781 785.707031 798.234375 784.898438 798.617188 Z M 1051.195312 567.183594 C 1051.371094 567.585938 1069.121094 607.261719 1065.445312 643.664062 C 1065.359375 644.5 1065.898438 645.234375 1066.660156 645.492188 C 1066.792969 645.53125 1066.902344 645.585938 1067.03125 645.605469 C 1067.097656 645.605469 1067.152344 645.613281 1067.21875 645.613281 C 1067.804688 645.613281 1068.3125 645.296875 1068.640625 644.832031 C 1068.808594 644.601562 1068.9375 644.332031 1068.972656 644.015625 C 1072.746094 606.675781 1054.605469 566.136719 1054.417969 565.726562 C 1054.351562 565.585938 1054.242188 565.476562 1054.148438 565.363281 C 1053.65625 564.761719 1052.8125 564.519531 1052.078125 564.84375 C 1051.984375 564.890625 1051.917969 564.964844 1051.835938 565.019531 C 1051.140625 565.496094 1050.832031 566.394531 1051.195312 567.183594 Z M 1021.992188 564.566406 C 1022.160156 565.113281 1039.445312 619.859375 1038.035156 648.890625 C 1037.988281 649.765625 1038.601562 650.488281 1039.425781 650.667969 C 1039.527344 650.695312 1039.613281 650.742188 1039.714844 650.742188 C 1039.742188 650.75 1039.769531 650.75 1039.796875 650.75 C 1040.402344 650.75 1040.921875 650.425781 1041.238281 649.960938 C 1041.414062 649.691406 1041.554688 649.402344 1041.5625 649.070312 C 1043.011719 619.394531 1026.078125 565.761719 1025.363281 563.496094 C 1025.28125 563.21875 1025.113281 563.003906 1024.925781 562.808594 C 1024.480469 562.34375 1023.792969 562.140625 1023.132812 562.34375 C 1022.976562 562.390625 1022.847656 562.484375 1022.714844 562.578125 C 1022.066406 563.003906 1021.742188 563.792969 1021.992188 564.566406 Z M 979.773438 564.296875 C 979.597656 563.953125 979.488281 563.75 979.476562 563.71875 C 979.023438 562.855469 979.347656 561.789062 980.210938 561.324219 C 980.917969 560.960938 981.753906 561.128906 982.28125 561.675781 C 982.402344 561.796875 982.523438 561.910156 982.597656 562.066406 C 983.636719 564.035156 1007.945312 610.523438 1000.953125 642.046875 C 1000.777344 642.875 1000.042969 643.429688 999.226562 643.429688 C 999.105469 643.429688 998.964844 643.421875 998.84375 643.394531 C 997.886719 643.179688 997.285156 642.234375 997.496094 641.277344 C 1003.8125 612.828125 982.550781 569.75 979.773438 564.296875"/></svg>