<?xml version="1.0" encoding="UTF-8"?><svg xmlns="http://www.w3.org/2000/svg" xmlns:xlink="http://www.w3.org/1999/xlink" contentScriptType="text/ecmascript" width="37.5" zoomAndPan="magnify" contentStyleType="text/css" viewBox="0 0 37.5 37.499999" height="37.499999" preserveAspectRatio="xMidYMid meet" version="1.0"><defs><clipPath id="clip-0"><path d="M 1.941406 0 L 35.691406 0 L 35.691406 37.007812 L 1.941406 37.007812 Z M 1.941406 0 " clip-rule="nonzero"/></clipPath></defs><g clip-path="url(#clip-0)"><path fill="rgb(100%, 100%, 100%)" d="M 35.671875 25.644531 C 35.671875 27.179688 34.578125 29.066406 33.246094 29.832031 L 21.246094 36.730469 C 19.914062 37.5 17.726562 37.5 16.390625 36.730469 L 4.394531 29.832031 C 3.058594 29.066406 1.964844 27.179688 1.964844 25.644531 L 1.964844 11.851562 C 1.964844 10.316406 3.058594 8.429688 4.394531 7.664062 L 16.390625 0.765625 C 17.726562 -0.00390625 19.914062 -0.00390625 21.246094 0.765625 L 33.246094 7.664062 C 34.578125 8.429688 35.671875 10.316406 35.671875 11.851562 L 35.671875 25.644531 " fill-opacity="1" fill-rule="nonzero"/></g><path fill="rgb(3.529358%, 16.859436%, 24.708557%)" d="M 28.867188 9.207031 L 25.332031 9.207031 L 25.332031 10.222656 L 28.867188 10.222656 L 28.867188 9.207031 " fill-opacity="1" fill-rule="nonzero"/><path fill="rgb(3.529358%, 16.859436%, 24.708557%)" d="M 8.769531 28.453125 L 12.304688 28.453125 L 12.304688 27.433594 L 8.769531 27.433594 L 8.769531 28.453125 " fill-opacity="1" fill-rule="nonzero"/><path fill="rgb(3.529358%, 16.859436%, 24.708557%)" d="M 25.816406 14.171875 L 28.367188 14.171875 L 28.367188 14.496094 L 25.816406 14.496094 Z M 25.816406 13.726562 C 26.679688 13.726562 27.523438 13.726562 28.367188 13.726562 C 28.367188 13.816406 28.367188 13.921875 28.367188 14.03125 C 27.523438 14.03125 26.679688 14.03125 25.816406 14.03125 C 25.816406 13.921875 25.816406 13.816406 25.816406 13.726562 Z M 25.816406 13.261719 C 26.679688 13.261719 27.523438 13.261719 28.367188 13.261719 C 28.367188 13.371094 28.367188 13.457031 28.367188 13.566406 C 27.523438 13.566406 26.679688 13.566406 25.816406 13.566406 C 25.816406 13.457031 25.816406 13.371094 25.816406 13.261719 Z M 25.816406 12.796875 C 26.679688 12.796875 27.523438 12.796875 28.367188 12.796875 C 28.367188 12.90625 28.367188 13.011719 28.367188 13.121094 C 27.523438 13.121094 26.679688 13.121094 25.816406 13.121094 C 25.816406 13.011719 25.816406 12.90625 25.816406 12.796875 Z M 25.816406 12.332031 C 26.679688 12.332031 27.523438 12.332031 28.367188 12.332031 C 28.367188 12.441406 28.367188 12.546875 28.367188 12.65625 C 27.523438 12.65625 26.679688 12.65625 25.816406 12.65625 C 25.816406 12.546875 25.816406 12.441406 25.816406 12.332031 Z M 25.816406 11.886719 L 28.367188 11.886719 L 28.367188 12.191406 L 25.816406 12.191406 Z M 11.820312 23.160156 L 11.820312 23.464844 L 9.253906 23.464844 L 9.253906 23.160156 Z M 11.820312 23.929688 C 10.976562 23.929688 10.117188 23.929688 9.253906 23.929688 C 9.253906 23.824219 9.253906 23.734375 9.253906 23.625 C 10.117188 23.625 10.976562 23.625 11.820312 23.625 C 11.820312 23.734375 11.820312 23.824219 11.820312 23.929688 Z M 11.820312 24.394531 C 10.976562 24.394531 10.117188 24.394531 9.253906 24.394531 C 9.253906 24.289062 9.253906 24.179688 9.253906 24.074219 C 10.117188 24.074219 10.976562 24.074219 11.820312 24.074219 C 11.820312 24.179688 11.820312 24.289062 11.820312 24.394531 Z M 11.820312 24.859375 C 10.976562 24.859375 10.117188 24.859375 9.253906 24.859375 C 9.253906 24.753906 9.253906 24.644531 9.253906 24.539062 C 10.117188 24.539062 10.976562 24.539062 11.820312 24.539062 C 11.820312 24.644531 11.820312 24.753906 11.820312 24.859375 Z M 11.820312 25.324219 C 10.976562 25.324219 10.117188 25.324219 9.253906 25.324219 C 9.253906 25.21875 9.253906 25.109375 9.253906 25.003906 C 10.117188 25.003906 10.976562 25.003906 11.820312 25.003906 C 11.820312 25.109375 11.820312 25.21875 11.820312 25.324219 Z M 11.820312 25.769531 L 9.253906 25.769531 L 9.253906 25.46875 L 11.820312 25.46875 Z M 25.136719 16.03125 L 26.464844 16.03125 L 26.464844 16.65625 L 26.734375 16.65625 L 26.734375 24.664062 C 26.734375 25.699219 26.300781 26.644531 25.621094 27.34375 C 24.9375 28.023438 23.988281 28.453125 22.945312 28.453125 C 21.886719 28.453125 20.9375 28.023438 20.253906 27.34375 C 19.574219 26.644531 19.144531 25.699219 19.144531 24.664062 L 19.144531 12.832031 C 19.144531 11.617188 18.640625 10.511719 17.832031 9.707031 C 17.023438 8.902344 15.914062 8.382812 14.675781 8.382812 C 13.453125 8.382812 12.339844 8.902344 11.535156 9.707031 C 10.707031 10.511719 10.222656 11.617188 10.222656 12.832031 L 10.222656 21 L 9.902344 21 L 9.902344 21.605469 L 8.574219 21.605469 L 8.574219 26.308594 L 12.503906 26.308594 L 12.503906 21.605469 L 11.175781 21.605469 L 11.175781 21 L 10.871094 21 L 10.871094 12.832031 C 10.871094 11.796875 11.320312 10.851562 12 10.171875 C 12.683594 9.472656 13.632812 9.0625 14.675781 9.0625 C 15.734375 9.0625 16.667969 9.472656 17.367188 10.171875 C 18.046875 10.851562 18.480469 11.796875 18.480469 12.832031 L 18.480469 24.664062 C 18.480469 25.878906 18.980469 27.003906 19.789062 27.808594 C 20.597656 28.613281 21.707031 29.113281 22.945312 29.113281 C 24.167969 29.113281 25.28125 28.613281 26.085938 27.808594 C 26.894531 27.003906 27.398438 25.878906 27.398438 24.664062 L 27.398438 16.65625 L 27.738281 16.65625 L 27.738281 16.03125 L 29.046875 16.03125 L 29.046875 11.351562 L 25.136719 11.351562 L 25.136719 16.03125 " fill-opacity="1" fill-rule="nonzero"/><path fill="rgb(3.529358%, 16.859436%, 24.708557%)" d="M 13.328125 25.539062 L 12.808594 25.539062 L 12.808594 26.628906 L 8.25 26.628906 L 8.25 25.539062 L 7.730469 25.539062 L 7.730469 26.628906 L 7.441406 26.628906 L 7.441406 27.109375 L 13.652344 27.109375 L 13.652344 26.628906 L 13.328125 26.628906 L 13.328125 25.539062 " fill-opacity="1" fill-rule="nonzero"/><path fill="rgb(3.529358%, 16.859436%, 24.708557%)" d="M 23.988281 10.546875 L 23.988281 11.027344 L 24.273438 11.027344 L 24.273438 12.117188 L 24.796875 12.117188 L 24.796875 11.027344 L 29.371094 11.027344 L 29.371094 12.117188 L 29.890625 12.117188 L 29.890625 11.027344 L 30.195312 11.027344 L 30.195312 10.546875 L 23.988281 10.546875 " fill-opacity="1" fill-rule="nonzero"/></svg>