<?xml version="1.0" standalone="no"?>
<!DOCTYPE svg PUBLIC "-//W3C//DTD SVG 20010904//EN"
 "http://www.w3.org/TR/2001/REC-SVG-20010904/DTD/svg10.dtd">
<svg version="1.0" xmlns="http://www.w3.org/2000/svg"
 width="70.000000pt" height="50.000000pt" viewBox="0 0 70.000000 50.000000"
 preserveAspectRatio="xMidYMid meet">

<g transform="translate(0.000000,50.000000) scale(0.100000,-0.100000)"
fill="#fff" stroke="none">
<path d="M17 430 c-10 -14 -13 -37 -9 -73 6 -70 16 -86 52 -85 24 1 30 5 30
24 0 13 5 26 10 29 19 11 10 25 -16 25 -18 0 -24 -5 -22 -17 1 -10 -2 -20 -7
-23 -13 -7 -15 69 -2 77 5 3 13 0 17 -7 4 -7 15 -10 23 -7 23 9 9 57 -20 68
-34 13 -40 12 -56 -11z"/>
<path d="M154 440 c-16 -6 -23 -23 -33 -79 -7 -38 -10 -75 -6 -81 10 -16 23
-12 30 10 8 26 31 26 38 0 3 -11 11 -20 17 -20 10 0 11 19 6 78 -8 84 -19 105
-52 92z m7 -93 c-8 -8 -11 -5 -11 9 0 27 14 41 18 19 2 -9 -1 -22 -7 -28z"/>
<path d="M344 439 c-10 -16 -5 -152 5 -162 13 -13 22 -6 24 22 2 28 11 27 27
-4 7 -14 17 -25 22 -25 12 0 10 44 -4 58 -9 9 -9 12 1 12 8 0 11 14 9 47 -3
47 -4 48 -41 54 -21 3 -40 2 -43 -2z m56 -59 c0 -11 -4 -20 -10 -20 -5 0 -10
9 -10 20 0 11 5 20 10 20 6 0 10 -9 10 -20z"/>
<path d="M444 436 c-3 -9 -1 -23 6 -31 9 -10 11 -35 7 -75 -5 -58 -4 -60 18
-60 21 0 23 5 23 45 0 25 3 63 7 85 5 32 4 40 -8 40 -9 0 -22 3 -31 6 -10 4
-18 0 -22 -10z"/>
<path d="M227 418 c-8 -34 1 -128 13 -144 29 -34 96 18 73 56 -8 12 -8 21 -2
27 6 6 9 26 7 44 -3 32 -5 34 -44 37 -36 3 -42 0 -47 -20z m53 -43 c0 -8 -4
-15 -8 -15 -5 0 -9 7 -9 15 0 8 4 15 9 15 4 0 8 -7 8 -15z m0 -61 c0 -8 -5
-12 -10 -9 -6 4 -8 11 -5 16 9 14 15 11 15 -7z"/>
<path d="M520 401 c0 -78 12 -129 31 -134 21 -6 58 18 46 30 -5 4 -14 8 -20 8
-20 0 -18 22 3 28 27 7 26 27 -2 35 -23 6 -23 6 2 12 18 4 26 14 28 33 3 26 1
27 -42 27 l-46 0 0 -39z"/>
<path d="M624 373 c2 -38 4 -76 5 -85 1 -14 10 -18 36 -18 39 0 49 24 15 33
-19 5 -20 10 -14 71 l7 66 -27 0 c-26 0 -26 0 -22 -67z"/>
<path d="M166 223 c-3 -4 -6 -16 -7 -27 0 -20 -1 -20 -11 2 -8 15 -19 22 -32
20 -20 -3 -21 -9 -18 -83 2 -43 5 -82 8 -84 10 -10 24 24 24 59 l1 35 21 -48
c11 -26 24 -47 28 -47 7 0 20 96 20 145 0 22 -22 40 -34 28z"/>
<path d="M324 219 c-7 -12 -7 -147 1 -159 11 -18 25 -10 25 15 0 32 14 32 28
0 6 -14 16 -25 22 -25 13 0 13 43 -1 57 -8 8 -8 13 0 17 15 10 14 71 -1 83
-18 14 -67 22 -74 12z m56 -53 c0 -24 -17 -28 -23 -6 -3 13 0 20 9 20 8 0 14
-6 14 -14z"/>
<path d="M431 217 c-5 -5 -7 -41 -4 -80 4 -77 18 -99 53 -90 24 6 27 41 4 39
-9 0 -19 5 -21 12 -3 7 4 12 16 12 26 0 28 25 4 39 -16 9 -16 10 3 11 16 0 23
8 26 29 4 28 2 29 -34 33 -21 2 -42 0 -47 -5z"/>
<path d="M542 214 c-29 -20 -28 -55 3 -92 27 -32 34 -52 12 -33 -10 8 -17 7
-25 -1 -14 -14 2 -38 27 -38 42 0 57 65 21 88 -12 7 -18 18 -14 24 4 7 10 5
16 -5 5 -9 15 -14 23 -11 18 7 10 53 -13 72 -20 15 -23 15 -50 -4z"/>
<path d="M215 143 c6 -83 19 -105 55 -96 24 6 27 41 4 39 -25 -2 -28 21 -4 27
27 7 26 27 -2 35 -23 6 -23 6 2 12 18 4 26 14 28 33 3 26 1 27 -43 27 l-46 0
6 -77z"/>
</g>
</svg>
