<?xml version="1.0" standalone="no"?>
<!DOCTYPE svg PUBLIC "-//W3C//DTD SVG 20010904//EN"
 "http://www.w3.org/TR/2001/REC-SVG-20010904/DTD/svg10.dtd">
<svg version="1.0" xmlns="http://www.w3.org/2000/svg"
 width="33.000000pt" height="33.000000pt" viewBox="0 0 119.000000 119.000000"
 preserveAspectRatio="xMidYMid meet">

<g transform="translate(0.000000,119.000000) scale(0.100000,-0.100000)"
fill="#fff" stroke="none">
<path d="M461 1094 c-85 -23 -150 -63 -226 -139 -106 -105 -155 -224 -155
-375 0 -146 53 -273 155 -375 61 -61 165 -125 204 -125 19 0 21 6 21 53 l0 52
-49 1 c-63 1 -94 22 -126 83 -13 27 -37 58 -52 69 -22 16 -25 23 -16 33 18 18
65 -5 103 -52 18 -22 43 -44 56 -49 32 -12 84 -1 91 19 2 9 9 24 14 33 13 25
13 25 -32 32 -86 14 -150 69 -174 150 -23 75 -19 144 10 201 18 36 23 59 19
89 -7 55 7 100 32 104 11 2 44 -10 75 -25 40 -20 63 -26 85 -22 45 10 156 10
190 0 26 -7 42 -4 89 20 79 40 92 38 105 -13 7 -22 9 -56 6 -74 -5 -23 -1 -42
14 -67 49 -82 34 -217 -31 -290 -37 -43 -104 -77 -151 -77 -22 0 -22 1 -3 -43
10 -24 15 -70 15 -132 0 -90 1 -95 21 -95 39 0 143 64 204 125 164 163 202
406 98 623 -34 70 -147 186 -219 224 -105 56 -257 73 -373 42z"/>
</g>
</svg>
